<?xml version="1.0" encoding="UTF-8"?><svg id="Capa_1" xmlns="http://www.w3.org/2000/svg" viewBox="0 0 254 131"><defs><style>.cls-1{fill:#2fac66;}.cls-2{letter-spacing:-.02em;}.cls-2,.cls-3,.cls-4{font-family:SourceSansRoman-Regular, 'Source Sans Variable';font-variation-settings:'wght' 400;}.cls-5,.cls-6{fill:#e30613;}.cls-5,.cls-6,.cls-7{font-family:SourceSansRoman-Semibold, 'Source Sans Variable';font-variation-settings:'wght' 600;font-weight:600;}.cls-8{letter-spacing:-.01em;}.cls-9{letter-spacing:0em;}.cls-6{letter-spacing:-.03em;}.cls-3{letter-spacing:0em;}.cls-7{font-size:69px;}.cls-10{fill:#f9b233;}.cls-11{fill:#86cbed;}.cls-12{letter-spacing:-.01em;}.cls-13{font-size:28px;}</style></defs><path class="cls-1" d="M47.77,65.24c7.71,.41,17.5,1.03,27.3,1.42,3.04,.12,3.81,1.35,3.85,4.28,.2,13.2-.86,14.79-14.11,16.41-15.43,1.89-30.88,.24-46.32-.27-3.97-.13-9.42,.87-11.48-1.27-2.13-2.22,.59-7.4,1.1-11.3,1.04-7.87,1.1-7.86,9.16-8.71,9.45-1,18.94-.49,30.5-.55Z"/><path class="cls-11" d="M59.54,37c6.47-.31,12.96-.48,19.41-1,3.01-.24,4.2,.88,4.58,3.69,.49,3.65,.81,7.28,.04,10.9-1.61,7.63-3.21,8.55-10.89,9.62-14.51,2.03-28.84-.92-43.26-1-1.94-.01-2.76-.74-2.46-2.67,.05-.33,.06-.66,.06-.99,.18-15.26,2.11-17.31,17.56-18.03,4.97-.23,9.96-.04,14.94-.04,0-.16,0-.33,0-.49Z"/><path class="cls-10" d="M80.18,11.03c3.51,5.73,1.64,11.88,1.35,17.89-.09,1.79-1.57,1.83-2.95,1.9-8.82,.43-17.63,.98-26.45,1.3-4.61,.17-6.68-2.08-6.41-6.75,.18-3.13,.26-6.3,1.4-9.3,1.03-1.58-.1-3.52,.84-5.11l-.03,.05c10.75-.67,21.5-.71,32.25,.02Z"/><text class="cls-7" transform="translate(105.55 56.37)"><tspan x="0" y="0">ONE</tspan></text><text class="cls-13" transform="translate(109 88.95)"><tspan class="cls-5" x="0" y="0">O</tspan><tspan class="cls-6" x="18.87" y="0">r</tspan><tspan class="cls-5" x="28.59" y="0">acle</tspan><tspan class="cls-4" x="77.75" y="0" xml:space="preserve"> N</tspan><tspan class="cls-3" x="101.47" y="0">e</tspan><tspan class="cls-2" x="115.16" y="0">x</tspan><tspan class="cls-4" x="126.98" y="0">t</tspan><tspan class="cls-4"><tspan class="cls-12" x="0" y="25">E</tspan><tspan x="14.48" y="25">du</tspan><tspan class="cls-9" x="45.25" y="25">c</tspan><tspan class="cls-8" x="57.74" y="25">a</tspan><tspan x="71.46" y="25">tion</tspan></tspan></text></svg>