<?xml version="1.0" encoding="UTF-8"?><svg id="Title" xmlns="http://www.w3.org/2000/svg" viewBox="0 0 531.28 271.89"><defs><style>.cls-1{fill:#fff;}.cls-2,.cls-3,.cls-4{fill:#e30613;}.cls-5{stroke:#575756;stroke-miterlimit:10;stroke-width:.25px;}.cls-5,.cls-6{fill:#62615f;}.cls-7{letter-spacing:-.09em;}.cls-3{font-family:TimesNewRomanPSMT, 'Times New Roman';font-size:44px;}.cls-8{letter-spacing:-.06em;}.cls-4{font-family:TimesNewRomanPS-BoldMT, 'Times New Roman';font-size:18px;font-weight:700;}</style></defs><g><polygon class="cls-2" points="290 87 308 88 308 122 290 122 290 87"/><polygon class="cls-2" points="320 96 327.85 96 327.85 112.85 320.3 112.85 320 96"/><polygon class="cls-2" points="342.37 112.85 357 114 357 122.37 342.37 121.48 342.37 112.85"/><rect class="cls-2" x="407" y="115" width="7" height="7"/><rect class="cls-2" x="449" y="113" width="3.56" height="6.78"/><polygon class="cls-2" points="428 109 434 109 434 92 428 91 428 109"/><polygon class="cls-2" points="446 82 439 80 439 75 446 77.61 446 82"/><polygon class="cls-2" points="419 76 424 78 424 68 419 66.72 419 76"/><polygon class="cls-2" points="406 94 415 96 415 103.72 406 102.28 406 94"/><polygon class="cls-2" points="391 77 396 79 396 87.37 391 86 391 77"/><polygon class="cls-2" points="404 73 408 74 408 62 404 61 404 73"/><polygon class="cls-2" points="386 65 394.22 66.72 394.22 55.56 386 51.89 386 65"/><polygon class="cls-2" points="371 70 375 71 375 48.56 371 46 371 70"/><polygon class="cls-2" points="342.37 94 369 98 369 103.72 342.37 100 342.37 94"/><polygon class="cls-2" points="329 80 341 81 341 58.5 329 55.04 329 80"/><polygon class="cls-2" points="313 38 313 29 327.85 33.5 327.85 42.44 313 38"/><polygon class="cls-2" points="282 63 313 69.26 313 59.31 282 52.67 282 63"/><polygon class="cls-2" points="282 38.15 294 41 294 17.85 282 13.41 282 38.15"/><polygon class="cls-2" points="355 39 359 40 359 87.37 355 87 355 39"/><polygon class="cls-2" points="378.67 96 389 98 389 115 378.67 115 378.67 96"/></g><g><polygon class="cls-6" points="271.11 9.78 271.11 128.67 237 128.67 237 102 226.5 102.5 226.5 128.5 200.5 128.67 200.5 88.5 184.59 90.5 184.59 128.67 165.5 128.67 165.5 107.5 158.44 108.5 158.44 128.67 140.5 128.67 140.5 95.5 133.04 95.5 133.04 128.67 129.5 128.67 129.5 96.5 121.5 96.5 121.56 128.67 119.19 128.67 119.5 98.5 112.5 98.5 112.74 128.67 102.5 128.67 102.5 112.5 96.67 112.5 96.67 128.67 88.5 128.67 88.5 104.5 81.7 104.5 81.7 128.67 75.5 128.67 75.5 114.5 70.5 114.5 70.5 128.5 67.5 128.5 67.5 77.5 113.5 62.37 113.5 46.5 128.5 40.5 140.5 35.5 140.89 52.67 271.11 9.78"/><path class="cls-1" d="M132.96,96c0-3.08,1.58-5.58,3.52-5.58s3.52,2.5,3.52,5.58"/><path class="cls-1" d="M112.55,99.5c0-2.54,1.54-4.59,3.45-4.59s3.45,2.06,3.45,4.59"/><path class="cls-6" d="M123.5,42.5c0-3.28,1.09-8.45,2.53-8.45s2.97,3.66,2.97,6.95"/><rect class="cls-1" x="90" y="113" width="3.33" height="5.94"/><rect class="cls-1" x="104" y="112" width="4.15" height="7"/><rect class="cls-1" x="77" y="114" width="3" height="6"/><polygon class="cls-1" points="80 99 77 100.15 77 107.93 80 107.93 80 99"/><polygon class="cls-1" points="90 98.15 93.33 96.74 93.33 106.37 90 106.37 90 98.15"/><polygon class="cls-1" points="101 95 101 104.96 97 106 97 96.74 101 95"/><rect class="cls-1" x="104" y="94.83" width="4.15" height="10.06"/><polygon class="cls-1" points="71 101 74 100 74 108.07 71 108.07 71 101"/><rect class="cls-1" x="147" y="108" width="4.39" height="9.81"/><rect class="cls-1" x="173" y="107" width="4.39" height="9.81"/><polygon class="cls-1" points="146 101 151.78 101 151.78 87.83 146 88.94 146 101"/><polygon class="cls-1" points="158 99 163.78 99 163.78 85.83 158 86.94 158 99"/><polygon class="cls-1" points="172 97 177.78 97 177.78 83.83 172 84.94 172 97"/><polygon class="cls-1" points="206.07 94 214.96 94 214.96 77.7 206.07 79.63 206.07 94"/><polygon class="cls-1" points="226.07 91 234.96 91 234.96 74.7 226.07 76.63 226.07 91"/><polygon class="cls-1" points="251.07 88 259.96 88 259.96 71.7 251.07 73.63 251.07 88"/><polygon class="cls-1" points="206.07 115.89 213.67 115.89 213.67 103.89 206.07 105.11 206.07 115.89"/><rect class="cls-1" x="250.33" y="101" width="8.78" height="13.89"/><polygon class="cls-1" points="71 83.5 74 83 74 94.83 71 94.91 71 83.5"/><polygon class="cls-1" points="77 81.55 80.28 81 80.28 93.91 77 94 77 81.55"/><polygon class="cls-1" points="83 79.55 86.28 79 86.28 91.91 83 92 83 79.55"/><polygon class="cls-1" points="89.47 77.59 93 77 93 90.91 89.47 91 89.47 77.59"/><polygon class="cls-1" points="97 75.63 100.78 75 100.78 89.9 97 90 97 75.63"/><polygon class="cls-1" points="104 73.67 108.03 73 108.03 88.89 104 89 104 73.67"/><polygon class="cls-1" points="117 70.67 121.03 70 121.03 85.89 117 86 117 70.67"/><polygon class="cls-1" points="124 68.67 128.03 68 128.03 83.89 124 84 124 68.67"/><polygon class="cls-1" points="130 66.67 134.03 66 134.03 81.89 130 82 130 66.67"/><polygon class="cls-1" points="146 62.8 150.79 62 150.79 80.87 146 81 146 62.8"/><polygon class="cls-1" points="158 59.8 162.79 59 162.79 77.87 158 78 158 59.8"/><polygon class="cls-1" points="172 55.97 177.8 55 177.8 77.84 172 78 172 55.97"/><polygon class="cls-1" points="187 51.88 195 51 195 71.86 187 72 187 51.88"/><polygon class="cls-1" points="206 46.92 214 46 214 67.85 206 68 206 46.92"/><polygon class="cls-1" points="227 40.05 237 39 237 63.83 227 64 227 40.05"/><polygon class="cls-1" points="250 33.14 263 32 263 58.99 250 60 250 33.14"/><polygon class="cls-1" points="110.63 69.22 116 68 126 57 143 60 125 54 110.63 69.22"/><polyline class="cls-1" points="115 49 118 48 118 54.15 115 55.04 115 49.19"/><polyline class="cls-1" points="119 47.81 122 46.81 122 52.96 119 53.85 119 48"/><polyline class="cls-1" points="124 45.81 127 44.81 127 50.96 124 51.85 124 46"/><polyline class="cls-1" points="129 43.81 132 42.81 132 48.96 129 49.85 129 44"/><polyline class="cls-1" points="134 41.81 137 40.81 137 46.96 134 47.85 134 42"/><line class="cls-5" x1="126.03" y1="34.05" x2="126.25" y2="25.07"/><path class="cls-1" d="M121.53,97.5c0-2.95,1.8-5.35,4.01-5.35s4.01,2.39,4.01,5.35"/></g><text class="cls-3" transform="translate(48.47 191.33)"><tspan class="cls-7" x="0" y="0">P</tspan><tspan x="20.43" y="0">ALACIO DE MINERÍ</tspan><tspan class="cls-8" x="423.71" y="0">A</tspan></text><path class="cls-6" d="M21,234c173.53,6.2,343.01,6.54,507.78,0-167.11-5.56-336.43-5.4-507.78,0Z"/><text class="cls-4" transform="translate(510.04 196.75)"><tspan x="0" y="0">®</tspan></text></svg>