<?xml version="1.0" encoding="UTF-8"?><svg id="Layer_1" xmlns="http://www.w3.org/2000/svg" viewBox="0 0 149.33 159.09"><defs><style>.cls-1{fill-rule:evenodd;}.cls-1,.cls-2{fill:#1c75bc;}</style></defs><path class="cls-1" d="M105.8,76.67v-29.12c0-.09-.07-.17-.16-.17H49.44c-.09,0-.16,.07-.16,.17v29.12s.01,.05,.03,.08c.25,10.17,3.13,19.67,8.33,27.48,5.1,7.63,12.15,13.01,19.86,15.15,.03,.02,.06,.02,.09,0,7.71-2.15,14.76-7.53,19.85-15.15,5.21-7.81,8.09-17.31,8.34-27.48,.01-.03,.02-.05,.02-.08m-1.14-.17c0,.05-.02,.11-.02,.15-.46,20-11.61,37.1-27.1,41.57-15.49-4.48-26.63-21.56-27.1-41.57,0-.04,0-.09-.02-.15v-27.96h54.24v27.96Z"/><path class="cls-1" d="M77.49,111.35s.07,.01,.11,0c12.02-4.5,20.67-18.84,21.05-34.89,0-.13,.01-.23,.01-.3v-21.15c0-.09-.06-.16-.15-.16H56.57c-.09,0-.16,.07-.16,.16v21.12c0,.09,.01,.19,.01,.32,.38,16.05,9.04,30.39,21.06,34.89m.06-1.21c-11.38-4.48-19.59-18.33-19.96-33.71,0-.14-.01-.25-.02-.33,0,0,0-16.17,0-19.62,.12,.27,.25,.52,.35,.68,.33,.49,1.05,1.84,1.05,1.84,0,0,.08,.62-.17,.71-.24,.08,.33,.41,.49,.66,.16,.24,.56,.96,.88,1.04,.32,.09,.41-.31,.16-.72-.24-.39-.69-1.43-.69-1.43,0,0-.11-.57-.35-1.14-.24-.56-.48-1.28-.48-1.28,0,0,1.32,.34,1.49,1.06,.07,.33,.5,2.16,.91,3.27,.24,.64,.64,1.12,1.05,1.68,.39,.56,1.36,1.45,2.48,1.77,1.12,.32,2.4-.4,2.97,0,.56,.41,1.6,1.44,2.32,1.68,.73,.24,2.65,.64,3.05,1.44,.41,.8,1.37,.88,1.85,.96,.48,.08,2.09,.72,2.09,2.16l-1.28,2.65s-.97,1.04-1.12,2c-.16,.97-.64,1.53,.32,2.97,.96,1.44,1.6,3.21,1.69,4.48,.08,1.29,1.28,1.45,2.08,2.01,.8,.56,0,1.12-.48,2.33-.48,1.2-.23,3.69-.72,5.29-.48,1.61-1.04,2.17-1.04,3.45s.08,2.65-.4,3.77c-.48,1.12-.17,2.17-.24,3.37-.08,1.2,.24,2.65,1.03,3.69,.81,1.04,2.65,1.52,2.41-.08-.24-1.61,.08-3.7,1.04-4.73l.97-1.04s-.16-1.53,.8-2.17c.97-.65,1.61-1.13,1.05-1.37-.56-.24,0-.8,.56-.8s.8,.24,2.09-1.28c1.28-1.53,1.68-1.85,2.97-2.57,1.28-.72,1.76-2.17,2.56-2.97,.8-.81,2.25-1.53,3.13-1.68,.88-.16,1.37-1.05,1.37-2.09s-.32-1.76,.4-2.88c.68-1.06,.29-1.34,.92-1.91-1.77,13.35-9.4,24.82-19.56,28.82m19.97-34.03c0,.08-.02,.19-.02,.33-.02,.64-.06,1.27-.09,1.9-.6-.58-1.54-.96-2.11-1.61-.64-.71-1.52-1.2-1.84-1.36-.33-.16-.48-.48-1.36-.32-.88,.16-1.6,0-1.77-.88-.16-.88-.08-1.76-.96-2.25-.88-.48-1.44-1.05-2.08-1.52-.64-.48-1.28-1.36-1.52-1.45-.24-.07-1.93,.09-1.93,.09,0,0-.96-.89-2.41-.57,0,0-.88-1.36-1.84-.64-.97,.72-1.76,1.21-2.32,.48-.56-.71-1.52-.4-2.17-.32-.64,.09-1.2-1.04-1.37-1.52-.16-.48,0-1.2-.24-1.2s-1.2,.33-1.84-.16c-.65-.48-.32-.96-.08-1.37,.24-.4,.56-1.99,.4-2.32l-.73-.08s-.88-.16-1.04,.48c-.16,.65-1.28,1.29-2.16,1.04-.89-.24-1.53-.8-1.85-1.68-.32-.88-.24-1.44-.08-1.92,.16-.48-.56-1.35-.79-1.59-.24-.24-.25,.15-.73-.65-.25-.43-.61-.78-.9-1.02h33.83v20.11Z"/><path class="cls-1" d="M61.98,24.32c-1.12-.53-2.29-.28-2.74,.26-.28,.35-.45,.44-.51,.46-.25,0-1.83-.06-2.48,.81-.35,.46-.38,1.06-.09,1.82,.96,2.6,1.06,3.07,1.07,3.09,0,.03,.02,.05,.04,.08,.02,.01,1.72,1.66,1,3.23-.8,1.73-.65,2.13,.28,2.62,.74,.39,1.08,.85,1.08,2.53v.13c-.01,1.19-.01,2.2,.55,2.77,.28,.28,.67,.41,1.2,.41,.39,0,.7-.15,.94-.46,.77-.96,.53-3.18,.29-4.22-.2-.89-.67-2.99,.03-3.53,.78-.57,1.1-.69,1.5-.25,.04,.04,.09,.05,.14,.05,.35-.03,1.01-.29,.96-1.03-.02-.3-.11-.53-.17-.69,0,0,0-.02,0-.02,.06,0,.15,.02,.28,.06,.48,.11,.92-.02,1.19-.35,.26-.32,.3-.77,.12-1.17-.37-.77-1.53-2.7-2.37-3.49l-.25-.24q-.5-.48-.47-.91c.06-.74-.51-1.42-1.59-1.94m2.19,8.42c.02,.06,.05,.12,.06,.18-.86-.36-1.7,.26-2.17,.6-1.13,.84-.8,2.78-.41,4.52,.28,1.23,.31,2.89-.1,3.39-.05,.08-.09,.09-.17,.09-.25,0-.41-.05-.5-.13-.27-.27-.27-1.22-.27-2.06v-.13c0-1.89-.43-2.78-1.61-3.4-.16-.09-.23-.14-.27-.17,.01-.09,.06-.38,.43-1.18,.86-1.86-.56-3.63-1.05-4.17-.11-.38-.39-1.2-1.04-2.96-.15-.42-.17-.72-.05-.89,.27-.35,1.22-.45,1.67-.42,.08,.01,.15,0,.22-.01,.23-.05,.61-.22,1.08-.8,.13-.16,.81-.35,1.54,0,.85,.4,1.05,.79,1.04,.96-.06,.88,.14,1.1,.78,1.71l.25,.23c.7,.67,1.81,2.48,2.15,3.2,.03,.07,.02,.12,.01,.14-.01,.01-.08,.03-.2,0-.4-.11-.92-.22-1.31,.21-.36,.41-.17,.89-.1,1.06"/><path class="cls-1" d="M59.97,27.96c-.47,0-.86,.39-.86,.86s.38,.86,.86,.86,.87-.38,.87-.86-.39-.86-.87-.86"/><path class="cls-1" d="M51.01,28.36c-.15,.04-3.82,1-3.82,3.43s2.37,2.56,2.39,2.56c.06,0,.12-.04,.15-.09,.03-.05,.02-.11-.02-.17-.33-.43-.48-.79-.43-1.06,.05-.32,.41-.53,.77-.75,.44-.26,.93-.55,.85-1.12-.16-1.12,.29-2.58,.29-2.6,.02-.06,0-.11-.04-.16-.03-.04-.09-.06-.16-.04m-2.64,4.29c-.13-.24-.2-.53-.2-.87,0-.89,.91-1.54,1.76-1.96-.05,.52-.07,.97-.02,1.38-.09,.07-.29,.19-.36,.24-.39,.23-.98,.58-1.18,1.21"/><path class="cls-1" d="M53,32.6c-1.54,.82-2.54,1.45-2.55,1.46-.06,.04-.08,.1-.07,.16,.01,.06,.06,.11,.12,.13,.48,.11,4.74,1.05,5.49,.92,.42-.06,1.29-.43,1.66-1.27,.33-.79,.13-1.74-.6-2.84-1.23-2.42-1.97-4.19-1.97-4.21-.03-.07-.11-.1-.18-.09-.04,0-3.98,.94-3.4,4.7,0,.07,.08,.14,.16,.14h1.4c.22,.06,.53,.21,.55,.35,0,.05-.02,.24-.6,.55m1.58-.67c-.1-.84-1.02-1.13-1.31-1.19-.07-.02-.13-.03-.2-.03h-.64c.06-1.55,1.24-2.33,2.04-2.68,.31,.7,.9,1.99,1.7,3.57,.02,.02,.04,.06,.05,.09,.37,.55,.76,1.33,.52,1.91-.2,.46-.75,.65-.92,.69-.25,.03-1.42-.15-3.02-.47,.21-.12,.43-.24,.65-.35,.3-.16,1.23-.65,1.12-1.54"/><path class="cls-1" d="M59.79,42.73c-.02-.1-.1-.24-.28-.32l-.93-.5s-.02,0-.03,0c-.02,0-.51-.12-1.02,.38l-4.22,3.06c-.12,.09-.46,.4-.39,.69,.03,.1,.12,.23,.38,.27,.63,.12,2.48,.33,2.56,.34,.05,0,.95,.03,1.34-.39,.34-.37,2.27-2.63,2.35-2.73,.04-.05,.33-.45,.25-.79m-3.31,2.85s-.29,.09-.55,.09l-1.17-.15,3.36-2.44s.06-.06,.1-.09c.04-.05,.08-.08,.12-.08l.31,.16c-.7,.83-1.9,2.22-2.16,2.51"/><path class="cls-1" d="M58.04,46.79c.67,.08,1.59,.17,1.68,.18,.1,.02,.67,.08,1.12-.75l1.12-2.14c.04-.06,.23-.36,.13-.63-.04-.12-.15-.27-.44-.33-.62-.15-.81-.21-.81-.21-.02,0-.67-.23-1,.27-.25,.4-2.06,2.57-2.08,2.59-.03,.05-.31,.42-.19,.72,.07,.17,.22,.26,.47,.29m1.76-.8c-.08,0-.44-.04-.85-.09,.49-.6,1.3-1.6,1.62-2.04,.05,.01,.15,.04,.35,.09-.26,.49-.95,1.8-.95,1.8-.08,.15-.15,.21-.17,.24"/><path class="cls-1" d="M62.31,47.03h1.33c.3,0,.86-.22,.86-1v-2.32s0-.06-.03-.08c0-.03-.26-.43-.84-.38-.47,.04-.81,.01-.81,.01-.04,0-.47,0-.65,.54-.14,.42-.88,2.05-.89,2.06-.01,.02-.2,.43,.02,.77,.16,.26,.51,.4,1.02,.4m1.21-1h0s-1.21,.01-1.21,.01h-.03c.19-.42,.6-1.33,.77-1.79,.13,0,.29,0,.47,0v1.79Z"/><path class="cls-1" d="M68.5,46.84l1.2-.1c.05,0,.23-.02,.34-.17,.11-.16,.1-.39-.03-.7-.28-.66-1.72-3.61-1.78-3.73,0,0,0-.01-.02-.02-.02-.04-.29-.38-.61-.27-.01,0-.02,0-.03,0l-.78,.48c-.19,.08-.45,.35-.27,.82,.22,.58,1,3.14,1.01,3.17,0-.01,0-.01,0-.02,.04,.22,.29,.6,.99,.54m-.95-3.83c.35,.71,.99,2.06,1.35,2.81-.21,.02-.48,.04-.48,.04h-.01c-.17-.53-.65-2.12-.9-2.83l.04-.02Z"/><path class="cls-1" d="M65.23,47.04c.36-.02,1.66-.05,1.68-.05,.03,0,.28,0,.42-.21,.1-.15,.12-.35,.03-.59l-1.01-3s0-.01,0-.02c-.09-.18-.35-.48-.73-.33-.33,.13-.79,.25-.8,.25-.01,0-.03,0-.04,.02-.05,.02-.22,.15-.22,.56,0,.34,.11,2.65,.12,2.75,.02,.23,.15,.65,.56,.63m.41-1c-.04-.81-.09-1.71-.1-2.14h0l.72,2.12-.62,.02Z"/><path class="cls-1" d="M70.99,46.61c.46-.06,1.19-.18,1.28-.19,.08,0,.44-.03,.62-.31,.15-.24,.11-.59-.11-1.02-.57-1.08-2.62-4.31-2.75-4.52-.03-.05-.14-.25-.35-.28-.15-.03-.3,.04-.46,.19,0-.01-.77,.7-.77,.7-.16,.13-.42,.5-.19,.98,.27,.58,1.89,3.92,1.9,3.95,0,0,0-.01,0-.01,.08,.19,.34,.57,.83,.5m-1.8-4.77c.08-.07,.2-.18,.29-.27,.55,.88,1.92,3.06,2.38,3.92-.22,.04-.56,.09-.86,.13-.23-.47-1.5-3.09-1.82-3.78"/><path class="cls-1" d="M45.41,81.47c-2.13-1-4.12-.18-4.12,1.71,0,4.36,8.95,3.71,7.49-3.83-.85-4.34-3.48-9.9-4.13-18.02-.65-8.13,3.71-10.79,3.71-10.79v-2.06c-6.89,3.36-5.54,18.15-3.48,25.04,2.07,6.89,.54,7.96,.54,7.96"/><path class="cls-1" d="M113.92,83.18c0-1.89-2-2.71-4.12-1.71,0,0-1.53-1.06,.53-7.96,2.06-6.89,3.42-21.68-3.47-25.04v2.06s4.36,2.65,3.72,10.79c-.66,8.12-3.28,13.68-4.13,18.02-1.47,7.54,7.48,8.19,7.48,3.83"/><path class="cls-1" d="M42.71,87.64l-4.21,3.43c-4.9-3.78-7.04,.69-7.04,.69,1.8-.35,3.26,.17,3.26,.17-3.78,1.03-2.83,3.43-2.83,3.43,0,0,3.87-2.31,5.49,.34,2.11,3.43-.51,6.1-.51,6.1,6.44,0,4.29-8.58,4.29-8.58l5.67-5.58h-4.12Z"/><path class="cls-1" d="M122.83,91.77s-2.15-4.47-7.04-.69l-4.21-3.43h-4.12l5.66,5.58s-2.15,8.58,4.29,8.58c0,0-2.62-2.66-.52-6.1,1.63-2.66,5.49-.34,5.49-.34,0,0,.95-2.4-2.83-3.43,0,0,1.46-.52,3.26-.17"/><path class="cls-1" d="M48.22,55.44l.06-3.42c-.12,.67-.67,1.16-1.28,1.54-.61,.36-.3,.79-.3,.79,1.28-.06,1.52,1.09,1.52,1.09"/><path class="cls-1" d="M47.49,64.29c.25,2.32,.85,1.47,.85,1.47,0,0-.18-3.83-.24-4.58-.06-.75-2.33-.35-2.38,.43-.04,.78,.43,4.09,.43,4.09l.67-.12-.12-2.86s.54-.73,.79,1.58"/><path class="cls-1" d="M47.97,72.28c.58,.76,.65-3.06,.47-3.8,0,0-1.72-.52-1.54,.38,.17,.89,.34,2.44,1.07,3.42"/><path class="cls-1" d="M45.8,57.49c0,.75,2.3,.45,2.3,.45v-1.22s-2.3-.37-2.3,.77"/><path class="cls-1" d="M48.1,59.83v-1.22s-2.3-.37-2.3,.77c0,.76,2.3,.45,2.3,.45"/><path class="cls-1" d="M54.41,101.91c0-.4-.31-.71-.71-.71s-.71,.31-.71,.71,.32,.71,.71,.71,.71-.32,.71-.71"/><path class="cls-1" d="M108.72,94.15c-.39,0-.7,.32-.7,.71s.31,.71,.7,.71,.71-.32,.71-.71-.31-.71-.71-.71"/><path class="cls-1" d="M107.05,95.21c0-.4-.32-.71-.71-.71s-.71,.32-.71,.71,.31,.71,.71,.71,.71-.32,.71-.71"/><path class="cls-1" d="M104.89,95.55c0-.4-.32-.71-.71-.71s-.71,.32-.71,.71,.32,.71,.71,.71,.71-.31,.71-.71"/><path class="cls-1" d="M47.11,108.07l.37-4.27s-.37-.85-1.62-.22l-.22,3.24s-.73,1.21-2.28-.15l.22-3.31s-.52-.7-1.51-.22l-.26,4.38s2.07,2.76,5.3,.55"/><path class="cls-1" d="M44.58,106.33c.25,.02,.46-.17,.47-.41l.08-1.39c.01-.25-.17-.47-.41-.47-.25-.02-.46,.17-.47,.41l-.08,1.41c-.02,.24,.17,.45,.41,.46"/><path class="cls-1" d="M53.09,108.95l.35-4.08s-.35-.81-1.54-.21l-.21,3.1s-.7,1.15-2.18-.14l.21-3.18s-.49-.66-1.44-.2l-.25,4.18s1.97,2.64,5.07,.53"/><path class="cls-1" d="M50.67,107.3c.23,.01,.43-.17,.45-.4l.07-1.34c.01-.23-.16-.43-.4-.44-.23-.01-.43,.16-.45,.39l-.08,1.34c-.02,.23,.16,.44,.4,.45"/><path class="cls-1" d="M58.43,109.38l.15-2.13s-.19-1.08-1.23-.33l-.14,.95s-.57,.75-.48-.57l.1-1.33s-.33-.42-.66,.15l-.05,1.7s-.28,.28-.8-.05l.19-2.41s-.33-1-1.32-.25l-.19,3.74s1.47,2.6,4.44,.52"/><path class="cls-1" d="M44.63,100.35c0-.39-.32-.71-.71-.71s-.71,.32-.71,.71,.32,.71,.71,.71,.71-.31,.71-.71"/><path class="cls-1" d="M48.12,100.87c0-.39-.32-.71-.71-.71s-.7,.32-.7,.71,.31,.71,.7,.71,.71-.32,.71-.71"/><path class="cls-1" d="M50.92,101.35c0-.4-.32-.71-.71-.71s-.7,.31-.7,.71,.31,.71,.7,.71,.71-.32,.71-.71"/><path class="cls-1" d="M47.47,89.05l.04,2.51,1.6,1.38s.85-3.12-1.65-3.88"/><path class="cls-1" d="M49.83,95.58c-.19,.24-.52,.71-.71-.14-.19-.86-.9-.76-1.27-.76s-.9,1.56-1.23,.47c-.33-1.09-.52-1.65-1.84-1.41v2.6l6.58,1.46s0-1.75-.29-2.03c-.28-.29-1.04-.43-1.23-.19"/><path class="cls-1" d="M51.58,98.94s-4.5-1.37-6.67-1.51l-.04,1.04,6.85,1.61s.23-.24-.14-1.13"/><path class="cls-1" d="M112.84,107.52l-.25-4.38c-.99-.48-1.51,.22-1.51,.22l.22,3.31c-1.55,1.37-2.29,.15-2.29,.15l-.22-3.24c-1.25-.63-1.62,.22-1.62,.22l.37,4.27c3.24,2.21,5.29-.55,5.29-.55"/><path class="cls-1" d="M109.61,105.92c.02,.25,.22,.43,.47,.41,.24,0,.43-.22,.41-.46l-.08-1.41c-.01-.23-.22-.43-.47-.41-.24,0-.43,.22-.41,.47l.08,1.39Z"/><path class="cls-1" d="M106.63,108.42l-.25-4.18c-.95-.46-1.44,.2-1.44,.2l.21,3.18c-1.47,1.29-2.18,.14-2.18,.14l-.21-3.1c-1.19-.6-1.54,.21-1.54,.21l.35,4.08c3.09,2.11,5.06-.53,5.06-.53"/><path class="cls-1" d="M103.85,105.12c-.23,.01-.41,.22-.4,.44l.08,1.34c0,.23,.21,.41,.44,.4,.23-.01,.42-.22,.4-.45l-.08-1.33c-.01-.24-.21-.41-.44-.4"/><path class="cls-1" d="M97.44,107.88l-.14-.95c-1.04-.75-1.24,.33-1.24,.33l.14,2.13c2.99,2.08,4.45-.52,4.45-.52l-.19-3.74c-1-.76-1.32,.25-1.32,.25l.19,2.41c-.52,.33-.8,.04-.8,.04l-.05-1.7c-.33-.57-.66-.15-.66-.15l.09,1.33c.09,1.33-.48,.57-.48,.57"/><path class="cls-1" d="M25.52,25.21c.5-.2,.94-.61,.66-1.3l-2.14-5.41-.56,.22,2.07,5.24c.17,.45,.1,.64-.2,.77-.28,.11-.48,.03-.67-.43l-2.07-5.23-.57,.23,2.15,5.42c.27,.69,.87,.69,1.35,.5"/><polygon class="cls-1" points="28 24.28 26.29 18.55 26.31 18.54 28.76 24.05 29.6 23.8 27.68 17.36 27.16 17.51 28.81 23.03 28.79 23.03 26.42 17.73 25.56 17.98 27.48 24.43 28 24.28"/><polygon class="cls-1" points="31.26 23.37 29.6 16.85 29.01 17.01 30.66 23.54 31.26 23.37"/><polygon class="cls-1" points="33.61 22.83 32.9 16.09 32.3 16.23 33.05 22.33 33.03 22.33 31.1 16.5 30.5 16.63 32.74 23.03 33.61 22.83"/><polygon class="cls-1" points="36.7 22.19 36.6 21.68 35.6 21.88 35.08 19.22 36.03 19.03 35.93 18.52 34.98 18.71 34.5 16.3 35.5 16.1 35.4 15.59 33.8 15.92 35.1 22.51 36.7 22.19"/><path class="cls-1" d="M38.28,21.91l-.56-3.18,.41-.07c.28-.05,.49,0,.55,.31l.49,2.79,.61-.1-.5-2.85c-.08-.46-.36-.53-.8-.5v-.02c.46-.11,.63-.31,.54-.83l-.29-1.68c-.11-.66-.49-.71-1.07-.61l-1.13,.2,1.15,6.63,.6-.11Zm-1.06-6.11l.34-.06c.31-.05,.52-.03,.6,.36l.26,1.49c.07,.39-.09,.5-.37,.56l-.41,.07-.42-2.42Z"/><path class="cls-1" d="M40.04,16.55c.06,.35,.18,.55,.39,.81l1.13,1.41c.16,.22,.24,.38,.27,.62l.15,.93c.04,.32-.05,.52-.29,.55-.27,.04-.42-.12-.47-.44l-.14-.88-.6,.1,.14,.91c.1,.67,.47,.92,1.14,.82,.61-.09,.92-.5,.83-1.12l-.16-1.05c-.04-.3-.17-.56-.35-.78l-1.22-1.51c-.13-.16-.19-.37-.22-.57l-.11-.7c-.04-.27,0-.47,.28-.5,.29-.05,.38,.14,.42,.39l.13,.82,.61-.09-.13-.85c-.09-.61-.42-.89-1.1-.78-.62,.09-.91,.47-.81,1.12l.12,.8Z"/><polygon class="cls-1" points="44.33 20.97 43.4 14.29 42.79 14.38 43.72 21.05 44.33 20.97"/><path class="cls-1" d="M46.56,20.67c.83-.1,.98-.55,.9-1.21l-.57-4.5c-.09-.66-.34-1.06-1.17-.96l-1.04,.13,.84,6.68,1.05-.14Zm-.88-6.15c.4-.05,.55,.07,.6,.46l.58,4.61c.05,.38-.06,.53-.47,.58l-.33,.04-.71-5.64,.33-.05Z"/><path class="cls-1" d="M49.03,18.5l1.07-.12,.45,1.82,.61-.07-1.71-6.58-.84,.1-.25,6.79,.61-.06,.05-1.88Zm.05-4.44h.02l.89,3.81-.95,.1,.04-3.9Z"/><path class="cls-1" d="M53.07,19.95c.84-.08,1-.52,.94-1.18l-.43-4.53c-.06-.66-.3-1.07-1.14-.99l-1.05,.1,.63,6.7,1.05-.1Zm-.69-6.17c.41-.04,.55,.08,.59,.46l.44,4.63c.04,.39-.08,.53-.49,.57l-.32,.03-.54-5.66,.32-.03Z"/><polygon class="cls-1" points="57.33 19.59 56.89 13.62 56.9 13.62 58.12 19.53 58.99 19.47 58.5 12.75 57.96 12.79 58.39 18.54 58.36 18.55 57.19 12.86 56.29 12.92 56.79 19.63 57.33 19.59"/><path class="cls-1" d="M60.55,17.5l1.08-.07,.36,1.85,.62-.04-1.4-6.66-.84,.05-.57,6.78,.62-.04,.14-1.88Zm.27-4.42h.01s.7,3.84,.7,3.84l-.95,.06,.23-3.89Z"/><path class="cls-1" d="M64.32,19.21c.64-.04,.94-.41,.91-.98l-.04-.96-.62,.03,.05,.94c.02,.28-.08,.43-.32,.44-.25,0-.36-.12-.37-.41l-.25-4.94c-.01-.28,.08-.44,.33-.44,.24-.01,.35,.13,.36,.42l.04,.86,.62-.03-.04-.88c-.03-.57-.36-.92-1-.89-.64,.03-.94,.41-.92,.98l.25,4.97c.03,.57,.36,.92,1.01,.89"/><rect class="cls-2" x="66.04" y="12.33" width=".62" height="6.73" transform="translate(-.58 2.69) rotate(-2.32)"/><path class="cls-1" d="M69.05,19.02c.83-.03,1.07-.51,1.04-1.17l-.14-4.57c-.02-.66-.28-1.13-1.11-1.11-.83,.03-1.07,.52-1.05,1.18l.14,4.57c.03,.66,.29,1.13,1.12,1.1m-.2-6.32c.39,0,.47,.25,.48,.62l.15,4.53c.01,.38-.06,.63-.44,.65-.4,.01-.48-.25-.49-.62l-.14-4.53c0-.37,.06-.64,.45-.65"/><polygon class="cls-1" points="71.81 18.89 71.7 12.91 71.72 12.91 72.61 18.88 73.48 18.86 73.36 12.13 72.82 12.14 72.93 17.9 72.91 17.9 72.04 12.16 71.15 12.17 71.27 18.9 71.81 18.89"/><path class="cls-1" d="M75.14,16.98h1.08s.26,1.86,.26,1.86h.62l-1.03-6.73h-.84s-.94,6.75-.94,6.75h.61s.24-1.88,.24-1.88Zm.51-4.4h.02l.49,3.88h-.95s.45-3.88,.45-3.88Z"/><polygon class="cls-1" points="79.58 18.32 78.57 18.31 78.6 12.11 77.99 12.1 77.96 18.83 79.58 18.84 79.58 18.32"/><path class="cls-1" d="M82.46,17.02l1.08,.02,.22,1.87,.61,.02-.85-6.75-.85-.02-1.11,6.71h.61s.29-1.85,.29-1.85Zm.62-4.39h.02l.38,3.89-.95-.02,.55-3.87Z"/><path class="cls-1" d="M86.17,19.03c.54,.02,1.1-.17,1.12-.92l.19-5.83-.62-.03-.17,5.63c-.02,.49-.17,.63-.49,.62-.31,0-.47-.16-.45-.65l.18-5.62-.61-.03-.19,5.83c-.02,.74,.52,.98,1.04,.99"/><polygon class="cls-1" points="88.86 19.08 89.47 19.1 89.74 12.9 90.43 12.93 90.46 12.4 88.46 12.32 88.44 12.84 89.13 12.87 88.86 19.08"/><path class="cls-1" d="M92.14,19.28c.82,.05,1.1-.41,1.14-1.07l.25-4.56c.04-.66-.18-1.15-1.02-1.19-.83-.05-1.11,.42-1.14,1.08l-.25,4.56c-.03,.66,.19,1.15,1.02,1.19m-.4-1.17l.24-4.52c.02-.37,.11-.63,.5-.61,.39,.02,.45,.28,.44,.66l-.25,4.52c-.02,.37-.11,.62-.5,.6-.39-.02-.45-.28-.43-.65"/><polygon class="cls-1" points="95.29 13.42 95.31 13.43 95.68 19.45 96.55 19.51 97 12.79 96.47 12.75 96.07 18.5 96.05 18.5 95.69 12.7 94.8 12.64 94.35 19.36 94.88 19.39 95.29 13.42"/><path class="cls-1" d="M98.74,19.74c.83,.06,1.11-.39,1.17-1.05l.37-4.56c.05-.66-.16-1.15-.99-1.22-.83-.07-1.12,.38-1.18,1.04l-.36,4.56c-.06,.66,.16,1.15,.99,1.22m-.37-1.19l.37-4.51c.03-.38,.12-.63,.51-.6,.39,.03,.45,.3,.42,.67l-.36,4.52c-.04,.37-.13,.62-.52,.59-.39-.04-.45-.3-.42-.67"/><polygon class="cls-1" points="102.07 13.73 102.09 13.73 102.19 19.98 102.95 20.06 104.26 13.95 104.28 13.95 103.68 20.12 104.21 20.18 104.87 13.48 103.93 13.39 102.65 19.32 102.63 19.32 102.53 13.25 101.58 13.16 100.93 19.86 101.47 19.91 102.07 13.73"/><path class="cls-1" d="M106.06,18.51l1.08,.13,.04,1.87,.61,.08-.21-6.8-.84-.1-1.75,6.57,.61,.07,.46-1.82Zm1.03-4.31h.02l.02,3.91-.95-.11,.91-3.8Z"/><polygon class="cls-1" points="116.39 15.55 116.4 15.56 116.03 21.79 116.79 21.93 118.55 15.93 118.57 15.94 117.5 22.05 118.03 22.14 119.19 15.52 118.26 15.35 116.54 21.17 116.52 21.16 116.88 15.1 115.94 14.95 114.78 21.58 115.31 21.67 116.39 15.55"/><polygon class="cls-1" points="120.71 22.68 120.81 22.17 119.81 21.97 120.35 19.31 121.3 19.51 121.41 18.99 120.46 18.8 120.95 16.4 121.94 16.6 122.05 16.09 120.45 15.77 119.1 22.36 120.71 22.68"/><polygon class="cls-1" points="121.27 22.81 121.88 22.94 123.1 20.32 123.12 20.33 123.05 23.22 123.65 23.36 123.59 19.87 125.12 16.79 124.51 16.65 123.38 19.18 123.36 19.18 123.46 16.4 122.86 16.27 122.89 19.7 121.27 22.81"/><polygon class="cls-1" points="124.97 23.71 126.69 17.2 126.09 17.04 124.37 23.55 124.97 23.71"/><path class="cls-1" d="M126.96,24.34c.62,.19,1.03-.06,1.2-.6l.28-.92-.59-.18-.28,.9c-.09,.27-.23,.38-.45,.3-.24-.07-.29-.23-.21-.51l1.45-4.72c.08-.28,.22-.38,.46-.31,.23,.08,.28,.24,.2,.51l-.25,.84,.59,.17,.26-.85c.16-.54-.03-.98-.65-1.17-.62-.19-1.02,.07-1.2,.61l-1.46,4.75c-.17,.55,.02,.99,.64,1.17"/><path class="cls-1" d="M129.62,25.28c.77,.31,1.19-.03,1.43-.65l1.72-4.23c.25-.62,.19-1.15-.58-1.46-.76-.32-1.18,.03-1.43,.65l-1.71,4.23c-.25,.61-.2,1.14,.57,1.46m0-1.25l1.7-4.2c.14-.35,.3-.56,.67-.41,.36,.15,.33,.42,.19,.76l-1.7,4.2c-.14,.35-.31,.56-.67,.41-.36-.15-.33-.42-.19-.76"/><path class="cls-1" d="M19.02,23.54c1.13,1.64,1.43,2.07,1.43,3.41v.4c-.02,1.02-.04,2.18,.77,3,.66,.66,1.73,.97,3.31,.97,1.19,0,2.82-.31,4.71-.66,2.93-.55,6.51-1.24,9.82-.96-.75,.77-3.25,2.75-8.34,2.19-5.03-.54-10.4-.74-12.27,1.9-1.01,1.43-.85,3.57,.5,6.35,.03,.07,.12,.1,.2,.07,.04-.02,3.87-1.38,3.02-5.65,1.5,.15,2.96,.62,4.54,1.15,.33,.1,.66,.22,1,.32-3.14,.88-5.66,2.21-5.66,3.59,0,.85,.95,1.17,3.22,2.19,2.37,1.08,4.6,1.92,6.65,2.93,5.82,2.87,10.04,5.37,10.67,4.76,.84-.82-13.1-6.35-9.81-11.12,1.84-2.68,4.88,.88,2.38,1.44-2.5,.56,3.61,6.75,10.79,8.88,0,0,1.25-1.33,2.27-1.85,0,0,1.08-.82-.52-1.23-1.59-.41-11.43-3.45-7.37-7.2,1.21-1.11,1.32-1.9,.79-2.44,1.4-.54,2.56-1.23,3.39-2.06,.83-.83,1.26-1.75,1.26-2.67,0-2.57-3.22-6.11-4.41-7.33,9.36-1.48,21.75-2.55,36.12-2.55s27.55,1.15,37.01,2.69c-1.16,1.19-4.45,4.78-4.45,7.38,0,.92,.44,1.84,1.26,2.67,.59,.57,1.34,1.09,2.22,1.53-1.04,.62-1.61,1.3-1.61,1.83,0,2.22,1.99,2.91,1.99,2.91,.25,2.55-5.79,5.26-7.46,5.96,.38,.16,1.19,.5,2.08,1.07,5.78-1.67,7.35-4.68,8.53-6.23,1.28-1.7-2.05-.8-2.05-2.49s4.98-2.92,3.97,1.69c-.91,4.16-6.88,6.79-9.48,7.73,.34,.29,.69,.6,1,.96,.14,.24,.49,.76,.73,.68,.31-.1,.08-1,.57-.89,.48,.1,.85,.3,1.07-.18,.23-.48,.17-.97,.59-.69,.42,.29,.48,.54,.88,.39,.39-.16-.34-1.28,.56-1,.91,.28,1.05-.23,.85-.69-.2-.46,.38-.21,.95,.16,.57,.38,.66-.37,.35-.83-.31-.46,.09-.82,.62-.31,.54,.51,1.5,.36,.8-.39-.71-.74,.11-1.38,.87-.79,.76,.59,.68,.23,.25-.48-.42-.72-.08-.98,.89-.36,.96,.62,1.61,.38,.56-.44-1.04-.82-.61-1.38,.46-.77,1.07,.62,2.37,.9,1.18-.15-1.18-1.06-1.56-1.8-.14-1.06,1.41,.74,2.54,.6,.4-.74-2.15-1.33,1.13-.1,1.89,.54,.76,.64,.9-.39-.57-1.21-1.47-.82-.6-1.07,1.36-.11,1.95,.98,1.95,.08,.34-.54-1.62-.61-2.27-1.77-.28-.76,1.98,1,3.99,1.15,1.98,.1-.91-.47-1.55-.85-1.84-1.12,.58-.21,1.34-.04,2.72,.94,2.62,1.85,.1,3.84-2.16,4.71-3.33,1.26-4.67,2.59-8.23,5.12-2.11,1.51-4.87,1.97-6.77,2.09,.2,.37,.37,.77,.49,1.18,3.07-.1,6.62-1.15,8.79-2.49,2.86-1.73,7.76-4.54,11.33-5.38,2.78-.66,5.37-2.11,1.16-5.13-1.46-1.05-2.89-1.88-4.29-2.52,.08-.02,.16-.05,.24-.08,1.58-.52,3.04-1,4.54-1.14-.85,4.27,2.98,5.64,3.02,5.64,.08,.03,.16,0,.2-.08,1.33-2.78,1.5-4.92,.49-6.34-1.86-2.64-7.24-2.45-12.26-1.9-5.65,.62-8.1-1.89-8.53-2.4,.64-.07,1.35-.08,2.13-.02,1.56,.12,3.37,.42,5.12,.72,4.12,.69,8.37,1.41,10.3-.05,.61-.47,.96-1.14,1.05-1.98,.19-1.81,1.11-3.36,1.92-4.73,.85-1.43,1.58-2.65,1.22-3.76-.24-.74-.97-1.37-2.21-1.91-5.53-2.39-13.98-4.56-23.79-6.1-10.86-1.7-23.04-2.61-35.22-2.61-23.38,0-45.14,2.96-56.78,7.71-.09,.03-2.33,.8-2.89,2.44-.26,.77-.11,1.59,.46,2.46,.45,.67,.82,1.22,1.12,1.67m1.62-5.64s.03-.01,.05-.02c11.53-4.72,33.15-7.64,56.41-7.64,28.55,0,49.43,4.65,58.63,8.63,.95,.41,1.52,.85,1.66,1.3,.22,.69-.4,1.75-1.12,2.96-.86,1.45-1.85,3.11-2.05,5.13-.05,.57-.28,1-.67,1.3-.01,0-.03,.03-.06,.04-.06-.31-.25-.63-.57-.95-3.9-3.9-27.62-8.25-55.43-8.25-14.25,0-28.28,1.11-39.54,3.14-4.98,.89-9.13,1.93-12,3-2.41,.91-3.86,1.8-4.33,2.67-.22-.52-.21-1.19-.19-1.84v-.42c0-1.65-.4-2.23-1.59-3.97-.31-.44-.68-.98-1.12-1.66-.39-.6-.5-1.12-.34-1.59,.32-.97,1.78-1.66,2.27-1.83m103.36,11.52c-1.77-.3-3.6-.61-5.21-.74-4.04-.31-6.45,1.16-7.72,2.38,.33-1.97,3.02-5.07,4.74-6.77,9,1.56,14.83,3.47,16.41,5.05,.22,.22,.3,.39,.3,.47s-.02,.14-.05,.21c-2,.49-5.4-.09-8.46-.6m-8.57,.67l.4,.23c.52,.62,3.23,3.41,9.39,2.74,2.55-.27,8.21-.89,10.63,.8-2.53-.37-4.73,.35-7.05,1.12-.44,.14-.88,.28-1.32,.42-5.39-2.07-10.08-1.48-12.85-.28-1.16-.5-2.04-1.09-2.62-1.66-.36-.36-.62-.73-.78-1.11,.64-.77,1.93-1.93,4.13-2.44-.02,.07,0,.15,.07,.19m19.24,4.65c.7,.01,1.42,.12,2.18,.34,.37,.99,.2,2.36-.53,4.08-.95-.58-2.25-1.88-1.65-4.42m-90.06-4.38c-4.56-2.75-10.89-1.55-15.57-.66-1.84,.34-3.43,.65-4.52,.65-.82,0-1.47-.09-1.96-.28-.07-.1-.12-.19-.12-.25,0-.08,.08-.25,.31-.47,1.62-1.63,7.79-3.62,17.3-5.21,1.56,1.56,3.92,4.26,4.56,6.21m-4.64,5.03c-1.96-.62-5.43-.52-7.36-.3-1,.11-2.02,.28-3.03,.5-.89-.24-1.74-.52-2.58-.79-2.32-.77-4.52-1.49-7.05-1.12,2.43-1.69,8.08-1.07,10.63-.8,6.15,.66,8.87-2.11,9.39-2.74l.4-.23s0,0,.02-.02c1.58,.27,3.06,.82,4.35,1.75-.25,1.43-2.01,2.88-4.79,3.76m-20.48,3.59c-.73-1.73-.9-3.1-.52-4.09,.76-.22,1.48-.32,2.17-.33,.6,2.54-.71,3.84-1.65,4.42"/><path class="cls-1" d="M80.99,43.33s-.09,0-.13,.04c-.03,.03-.05,.08-.05,.13,0,.02,.28,3.24,3.94,3.24,3.19,0,6.08-2.58,6.75-3.22,.44,.71,2.17,3.29,3.69,3.12,.65-.07,1.17-.63,1.53-1.64,.47,.49,1.77,1.67,3.4,1.56,1.33-.09,2.55-1.02,3.62-2.77,.03-.06,.03-.12-.01-.18-.04-.05-.11-.07-.18-.05-.03,.01-3.07,.94-4.96-.45-1.02-.75-1.53-2.05-1.53-3.85,0-2.74,.17-4.31,.48-5.31,.89,.47,1.95,.84,3.12,.87,3.4,.08,4.06-1.99,4.08-2.08,.01-.05,0-.11-.04-.15-.04-.04-.09-.06-.15-.06-1.14,.18-1.96,.06-2.42-.07,1.57-.52,2.7-.54,3.29-.04,.63,.53,.44,1.51,.44,1.52-.02,.07,.03,.14,.08,.18,.06,.03,.14,.02,.19-.04,1.21-1.34,1.66-2.44,1.34-3.37-.52-1.59-3.15-2.27-5.57-2.77-3.48-.72-4.78-4.54-4.79-4.57-.01-.05-.05-.09-.1-.1-.05-.01-.1-.01-.14,.02-.86,.48-1.51,1.02-1.97,1.61l-2.35-2.64s-.08-.05-.13-.05c-.04,0-.09,.03-.12,.06-.04,.06-.96,1.25-.41,3.12-.45-.49-1.07-1.31-1.11-2.21-.01-.06-.04-.11-.1-.13-.05-.02-.12-.01-.17,.03-.02,.02-2.41,2.24-.06,5.55-.53,.21-2.38,.73-6.05-.31-.04-.02-.09-.02-.12,.02-.04,.02-.07,.05-.08,.09,0,.05-.28,1.26,.55,2.33,.7,.9,1.96,1.39,3.73,1.48-.6,.44-2.24,1.25-5.51,.3-.06-.01-.11,0-.15,.04-.05,.04-.06,.1-.05,.15,0,.04,1,3.95,6.01,3.3-.96,.86-3.81,3.01-7.48,1.94-.05-.01-.1,0-.14,.03-.04,.03-.07,.07-.07,.13,0,.1,.08,2.28,1.75,3.19,1.44,.79,3.58,.36,6.37-1.27-.38,1.05-2.02,3.88-8.24,3.27m8.54-10.72c.2-.25,.24-.58,.11-.86-.14-.29-.42-.47-.74-.48-1.64-.02-2.8-.4-3.36-1.1-.15-.19-.26-.38-.33-.62,3.96,.89,5.71-.02,5.9-.13,.21-.12,.35-.32,.39-.55,.05-.23,0-.47-.14-.66-.97-1.3-1.06-2.34-.9-3.07,.55,.88,1.27,1.47,1.3,1.49,.3,.24,.72,.24,1.03,.01,.3-.23,.4-.64,.24-1-.26-.6-.37-1.18-.3-1.72l1.65,1.85c-.07,.17-.13,.34-.18,.52-.26,1.09,.11,1.96,.29,2.29-2.74,1.77-2.83,3.43-2.7,4.16-.34,.53-1.45,1.95-3.37,2.34-2.04,.2-3.21-.47-3.89-1.21,3.56,.47,4.95-1.19,5.01-1.27m7.06-7.96c.27,.54,.66,1.2,1.2,1.84l-1.35,.13-.86-.97c.24-.35,.59-.69,1.01-1m9.79,7.39c-.1-.14-.21-.26-.33-.37-.95-.81-2.49-.8-4.7,.03-.31,.11-.52,.39-.54,.73-.02,.33,.17,.64,.46,.78,.06,.03,.5,.23,1.26,.35-.51,.2-1.13,.29-1.85,.27-1.01-.02-1.95-.36-2.74-.79,.31-.49,.71-.77,1.17-1.1,.15-.1,.29-.2,.44-.32,.78-.59,1.43-1.76,1.88-2.78,.09,.02,.18,.05,.27,.06,1.34,.28,4.46,.93,4.84,2.11,.09,.27,.03,.61-.16,1.03m-4.76,12.81c-.51,.45-1.03,.68-1.56,.72-1.49,.1-2.75-1.4-2.77-1.41-.11-.14-.27-.23-.45-.27-.22-.45-.5-1.16-.65-2.04,.1,0,.19-.02,.27-.03,.32,.88,.83,1.57,1.53,2.09,1.13,.83,2.53,.99,3.62,.95m-6.48-18.23l.63,.72c.15,.16,.38,.27,.61,.27,0,0,.5-.04,1.08-.09-.11,.37-.29,.63-.54,.78-.42,.25-.98,.17-1.45,.02-.03-.06-.05-.11-.09-.16,0,0-.41-.67-.25-1.54m3.81,4.2c-.14,.11-.28,.21-.41,.31-.58,.41-1.06,.79-1.44,1.38-.14-.1-.28-.21-.41-.31,.39-.63,1.06-1.21,1.93-1.64,1.07-.54,1.19-1.68,1.15-2.41,.23,.13,.46,.25,.72,.35-.4,.88-.94,1.85-1.54,2.3m-6.43,12.14c-.23-.07-.59-.51-.48-2.4,.66-.37,1.19-.97,1.53-1.41-.09,.94,.11,1.65,.58,2.1,.11,.11,.23,.19,.35,.27-.61,.76-1.51,1.63-2,1.44m-.14-6.31s.01,0,.01,0c.05-.01,.98-.34,1.58-.97,0,.24,.02,.55,.09,.85-1.35,2.35-2.59,3.25-3.25,3.32-.06-.31,.7-1.77,1.57-3.19m3.79,4.02c-.51,.11-.9,.05-1.13-.21-.57-.62-.26-2.24,.04-3.28,.31-.07,.7-.19,1.03-.34-.04,.7-.06,1.49-.06,2.41,0,.5,.04,.98,.11,1.41m-.97-11.4c.62,.19,1.4,.3,2.09-.05,.44-.22,.99-.7,1.2-1.77,.06,0,.11,0,.16,0l.06,.23,.02,.08s.34,1.49-.55,1.93c-.96,.48-1.73,1.13-2.24,1.87-.29-.27-.45-.46-.46-.47-.23-.26-.59-.35-.91-.24-.26,.09-.45,.31-.51,.58-.05,.05-.3,.34-1.3,.62,.1-.59,.57-1.59,2.38-2.74,.02-.02,.04-.03,.06-.05m.1,13.15c.18,.57,.42,1.29,.67,1.81-.03,.06-.06,.13-.09,.2-.23,.73-.53,1.19-.8,1.21-.48,.06-1.34-.73-2.09-1.71,.91-.34,1.67-.77,2.3-1.52m-.18-6.4c-.11-.41-.37-1.57-.19-2.59,0-.07-.02-.14-.08-.17-.07-.03-.14-.02-.19,.03,0,0-.97,1.01-1.81,1.62-.12-.21-.33-.74-.3-1.69,.02-.04,.04-.07,.06-.11,1.56-.36,2.12-.85,2.31-1.18,.28,.31,.9,.91,1.75,1.49-.19,.54-.33,1.21-.44,2.09-.23,.17-.6,.36-1.11,.52m-5.23,.32c.14-.16,.21-.37,.21-.57,.35-.14,.86-.42,1.38-1,.06,.26,.15,.58,.27,.9-.75,1.37-1.75,2.57-2.33,3.2-.12,.01-.24,.05-.35,.12-2.59,1.58-4.58,2.07-5.73,1.45-.55-.29-.84-.81-1.01-1.27,4.43,.57,7.43-2.71,7.56-2.84m.11,4.4c.3,.12,.62,.19,.93,.17,.03,.32,.1,.96,.27,1.59-.1,.04-.19,.1-.27,.18-.02,.03-3.06,3.07-6.19,3.07-1.56,0-2.3-.7-2.65-1.38,5.37,.18,7.27-2.27,7.91-3.63"/><path class="cls-1" d="M27.3,105.3c.08-.45,.11-1.01-.19-1.15-.29-.13-.57,.24-.65,.36,0,0-.02,.02-.02,.03h0s-.44,.87-1.79,.83c-.89-.03-1.81,.4-2.27,1.07-.31,.45-.37,.95-.18,1.4,.36,.83,.99,1.29,1.33,1.18,.07-.02,.29-.13,.2-.51l-.05-.17c-.04-.17-.09-.39-.09-.48,.04,.01,.12,.03,.26,.11,.48,.26,.98,.29,1.25,.08,.11-.09,.28-.3,.16-.72-.06-.2-.14-.36-.2-.49-.05-.1-.11-.21-.1-.26,.01-.01,.1-.09,.62-.12,1.23-.11,1.56-.17,1.73-1.16m-3.45,1.48c-.07-.02-.13-.02-.2-.03,.06-.03,.11-.07,.18-.1,0,.04,.01,.08,.02,.13"/><path class="cls-1" d="M139.39,104.06c-.32-.09-.5-.24-.69-.4-.3-.26-.62-.52-1.45-.54-.39,0-.67,.11-.83,.36-.27,.4-.15,1.14,.36,2.23,.13,.27,.16,.45,.16,.55-.56-.17-1.14-.34-1.66-.58-.37-.16-.69-.15-.95,.04-.63,.44-.74,1.85-.7,3.16-1.54,.06-2.8,1.17-3.71,2.03,0-.56-.06-1.22-.37-1.55-.21-.22-.62-.33-1.14-.3-.51,.04-1.13,.22-1.77,.6,0-.29-.01-.67-.08-.94-.07-.22-.31-.41-.63-.5-.42-.11-1.12-.08-1.64,.43-.24,.23-.32,.52-.24,.82,.13,.53,.71,1.06,1.28,1.34-.08,.09-.15,.18-.22,.29-.3,.42-.39,.84-.25,1.22,.24,.73,1.24,1.22,2.27,1.59-1.33,1.28-2.93,2.36-4.61,1.93-.27-.31-1.97-2.09-5.36-1.26l-.36,.08c-3.34,.8-5.99,1.43-7.3,4.7-.4,1.01-.76,1.47-1.11,1.91-.81,1.02-1.44,1.83-1.99,8.02-.53,.17-2.98,.95-4.57,1.91-.32,.15-.68,.17-1.05,.2-.83,.05-1.77,.12-3.01,1.53-.71,.53-1.11,.46-1.53,.39-.44-.07-.9-.15-1.62,.4-.46,.25-.95,.3-1.22,.31,.21-.54,.89-1.98,2.2-2.34,1.29-.35,4.46-1.34,5.77-3.03,.01-.02,.02-.02,.02-.03,.46-.98,1.16-1.52,1.72-1.95,.68-.53,1.28-.97,.86-1.96-.29-.69,0-1.48,.28-2.26,.27-.75,.55-1.53,.1-2.04,.56-.17,1.76-.59,2.12-1.19,.1-.19,.14-.38,.08-.57-.07-.29,.03-.79,.14-1.31,.18-.84,.36-1.7-.04-2.2-.19-.24-.49-.35-.88-.38-.11-.23-.44-.8-1.03-.94-.46-.11-.97,.09-1.5,.58-.27-.1-1.03-.32-1.53,.03-.33,.23-.48,.65-.46,1.24l-1.03,1.64c-.38-.1-1.56-.21-3.72,1.18l-.87,.55c-2.14,1.33-3.83,2.38-4.37,4.91-.27,1.28-.48,1.95-.63,2.32-.14-.11-.29-.21-.46-.31-.53-.3-1.05-.53-1.56-.75-.96-.43-1.8-.79-2.3-1.45-1.09-1.46-2.65-1.56-4.65-.31-2.26,1.43-4,1.17-6.4,.19-.41-.16-.88-.33-1.38-.53-2.57-.98-6.11-2.32-7.36-4.11-.24-.34-.46-.69-.67-1-1.11-1.7-1.98-3.04-4.32-3.11-.23-.09-1.71-.66-3.38,.56,0,.01-.02,.03-.03,.04,0,0-.06,.08-.15,.08-.09,.01-.21-.05-.33-.17-.56-.56-1.05-.7-2.19,.11-.1,.07-2,1.51-2.67,2.94-.09-.06-.16-.13-.2-.23-.86-2-1.83-3.19-2.81-3.46-.83-.21-1.47-.99-2.16-1.8-.41-.49-.83-1-1.33-1.42-.4-.35-.79-.5-1.19-.46-.74,.08-1.32,.84-1.93,1.64l-.19,.24c-.65,.84-1.78,1.71-2.77,2.46-.41,.31-.79,.61-1.12,.88-.02,.02-.05,.05-.07,.06-.47-.3-.75-.61-.85-.91-.48-1.42-1.72-3.03-2.31-3.75,.16-.9,.09-1.8-.48-2.51,.69,0,1.2-.43,1.65-1.33,.21-.41,.22-.76,.05-1.05-.28-.48-1.04-.73-2.34-.78-1.04-.04-2,.84-2.47,1.37-.61-.02-1.33,.09-2.24,.41,.1-.47,.03-.91-.36-1.23-1.45-1.22-3.76,.99-4.86,2.05-.83,.79-.91,1.67-.84,2.22h-.02c-.08,.03-.14,.05-.2,.06-.04,0-.19-.04-.32-.07-.31-.07-.79-.2-1.33-.25-.21-.9-.78-2.56-2.05-2.52-.17,0-.35,.03-.55,.06,.03-.12,.05-.24,.05-.36,0-.41-.16-.81-.45-1.09-.29-.29-.68-.45-1.09-.45-.85,0-1.54,.69-1.54,1.54,0,.41,.16,.8,.45,1.09,.09,.08,.18,.15,.28,.21-.32,.24-.57,.52-.69,.82-.12,.31-.15,.77,.36,1.26,.43,.42,.96,.9,1.57,1.44-.18,.43-.31,.93-.38,1.49,0,.01,0,.04,0,.08-.28,.11-.83,.39-.83,.86,0,.42,.4,.79,.71,1.02,0,.73,.01,1.52,.13,2.23-.2,.28-.38,.68-.11,.92,.13,.11,.31,.22,.5,.31,.07,.13,.15,.24,.24,.33,.34,.35,.64,.7,.93,1.04,.07,.08,.13,.15,.2,.23-.11,.47-.19,1.2,.3,1.33,.3,.08,.7,.08,1.07,.04,.27,.21,.57,.42,.9,.63,.4,.24,.82,.51,1.24,.8-.03,.46,0,1.21,.51,1.11,.33-.06,.61-.11,.82-.13,1.11,.86,1.97,1.67,1.96,1.91-.37,.52-1.82,1.97-2.45,1.97-.27,0-.49,.12-.64,.35-.31,.45-.31,1.25-.01,2.07-.31,.26-1.22,1.12-.88,1.78,.11,.21,.3,.42,.49,.63,.24,.25,.51,.53,.47,.71-.03,.11-.17,.21-.41,.29-.76,.28-1.8,.76-2.04,1.66-.18,.65,.08,1.4,.78,2.23,.02,.04,.04,.05,.06,.08l-.4,.48s-1.39,.33-.93,1.39c.46,1.06,2.25,1.13,1.92-.53l.4-.44c.78,.54,1.62,.73,2.31,.49,.73-.26,1.17-.93,1.26-1.87,.76,.32,3.52,1.36,6.15,1.25,.3,.28,.78,.6,1.26,.44,.39-.14,.59-.42,.69-.69,.6,.02,1.96,.06,3.22-.04,.17,.25,.47,.5,.98,.46,.53-.03,.61-.38,.57-.7,.29-.09,.53-.18,.71-.29,.49-.31,1.85-.5,3.84-.54,.05,.11,.1,.22,.17,.33,.61,1.03,.96,1.39,1.13,1.58q.11,.12,.06,.34c-.07,.29-.13,.62,.06,.89,.17,.24,.51,.39,1.06,.46h.03c1.07,.14,1.78,.23,2.29,1.03l.06,.11c.25,.41,.43,.7,.76,.77,.31,.07,.68-.07,1.43-.55,1.19-.75,2.33-.05,2.52,.08,.12,.2,.65,1.04,1.26,.98,.37-.04,.66-.39,.89-1.07,.35-.19,.65-.19,1.03-.19,.58-.01,1.3-.02,2.52-.66,.04-.02,2.51-1.64,3.98-2.44,.22,.4,.32,.84,.39,1.25,.22,1.32-5.23,3.83-3.12,7.14,.27,.43,.53,.3,.53,.3,0,0-.44-1.11,.26-1.88,.59-.64,3.5,.22,5.03-1.63,.45,1.92,2.49,2.07,2.51,2.07,.09,0,.16-.06,.17-.14l.69-4.89c.27,.63,.66,1.09,1.14,1.35,.6,.32,1.19,.25,1.44,.19,1.53,2.44,3.53,1.79,3.81,1.7,.92,0,1.4-.16,1.49-.49,.03-.14,.16-.58-1.45-1.52-.17-.11-.22-.19-.21-.25,.01-.07,.13-.15,.34-.18,.62-.09,1.95,.3,3.03,2.36,1.51,2.88,4.53,2,4.56,1.99,.07-.02,.11-.08,.11-.15,0-.07-.04-.13-.11-.16-.69-.24-.92-1.01-.99-1.48,1.78,1.38,3.44,1.98,4.94,1.78,1.67-.22,2.51-1.34,2.54-1.38,.04-.05,.04-.12,0-.18-.03-.05-.11-.08-.17-.06-1.89,.51-2.73-.22-3.64-1.25,.8-.14,2.13-.76,3.78-2.95,.37-.11,2.84-.77,5.29,0,.24,.07,.52,.17,.83,.28,3.02,1.01,9.32,3.13,13.54-.17,2.8-2.2,3.49-3.6,3.57-4.4,.01-.19,0-.34-.03-.46,.52,.1,.89,.13,.93,.13,.03,0,.05,0,.08-.02,.92,.15,2.17,.4,3.24,.8,.21,.08,.46,.18,.75,.3-.24,.32-.7,1.09-.06,1.39,.82,.39,2.79-.82,2.79,.31s.96,.95,2.59,.25c0,0,.79-.19,.88,.26,.08,.44,.5,.93,1.12,.84,.31-.04,.73-.55,1.17-.97,.56-.01,1.11-.06,1.65-.16,.55,.42,1.04,.54,1.38,.24,.21-.18,.3-.52,.36-.81,.75-.39,1.29-.92,1.63-1.58,.47-.94,.38-1.93,.26-2.52,.19-.19,.51-.6,.62-1.19,.13-.78-.73-.65-1.31-1.46-.21-.4-.48-.8-.87-1.19-.13-.22-.22-.53-.27-1.01-.1-1.19-1.32-1.63-1.54-.26-2.95-1.45-7.02-1.25-9.73-.6-.77,.18-1.55,.41-2.3,.64-2.38,.7-4.62,1.36-5.69,.26,.11-.39,.77-2.12,4.11-3.31,2.41-.87,8.07-3.22,9.13-6.74,1.14,.06,9.29,.4,11.27-2.4,1.75-2.48,3.3-4.68,1.56-6.84,.79-.63,1.42-1.29,1.86-1.96,.31-.48,.39-.88,.26-1.23-.13-.35-.45-.61-.89-.81,.13-.22,.47-.52,1.33-.7,.68-.15,.79-.51,.8-.71,.02-.55-.65-1.16-1.27-1.35m-104.66,3.09c.77,.03,1.15,.13,1.33,.2-.42,.84-.55,.89-1.39,.49-.27-.13-.53-.24-.79-.36,.32-.22,.62-.33,.85-.33m90.8,2.45c-.12-.08-.22-.18-.28-.26,.11-.05,.2-.06,.27-.06,0,.09,0,.2,0,.32m5.54,24.77c0,.14,.01,.28,.06,.4,0,.01,.42,1.17-.08,2.17-.33,.64-1,1.12-2,1.41-3.28,.95-7.62-.75-9.95-1.68-.31-.12-.64-.25-.91-.36-2.08-.76-4.69-1.03-4.8-1.04-.11,0-.21,0-.31,.02-1.59-.38-1.77-.85-1.77-2.01,0-.93,.62-1.33,1.09-1.49,1.39,.14,3.08-.36,4.82-.89,.74-.22,1.51-.45,2.25-.63,2.71-.65,6.84-.83,9.54,.82,2.14,1.31,2.06,3.2,2.05,3.28m-18.6,2.34c.01,.15-.04,1.29-3.14,3.72-3.75,2.93-9.44,1.02-12.5,0l-.05-.02c-.29-.1-.56-.19-.8-.26-2.58-.83-5.12-.25-5.82-.06,.05-.74,.08-1.88-.14-2.57-.24-.77,.57-1.5,1.06-1.88,.95-.12,1.66-.31,2.18-.51,.31,.01,.99-.03,1.68-.35-.24,.46-.65,1.36-.16,1.51,.65,.21,2.1,.53,1.57-1.83,.5,.06,1.19,.02,2.09-.64,.06-.04,.11-.09,.16-.14,.94-1.09,1.52-1.13,2.25-1.17,.44-.03,.94-.07,1.47-.32,.02-.02,.06-.04,.08-.05,1.67-.99,4.4-1.82,4.42-1.83,.02,0,.04,0,.06-.01,.68,.36,2.1,.97,3.42,.42,.02,0,.02,.02,.04,.04,.23,.25,.47,.44,.74,.59-.5,.46-.81,1.13-.9,2.03-.06,.64,.11,1.2,.51,1.67,.43,.5,1.05,.84,1.66,1.06-.02,.19,.03,.4,.13,.58m-30.17,7.31c-.33,.16-.55,.5-.55,.87,0,.33,.06,.71,.16,1.04-.68-.21-1.22-.69-1.6-1.41-1.28-2.43-3.05-3.11-4.18-2.94-.22,.03-.41,.09-.59,.19,.17-.3,.29-.64,.35-1.05,.54,.08,2.17,.24,3.02-.57,.09,.07,.18,.12,.28,.16,.09,.04,.18,.05,.29,.06,.95,.51,4.02,2.19,5.19,3.35,.28,.27,.53,.57,.77,.85,.39,.46,.82,.94,1.35,1.34-1.05-.15-2.22-.73-3.48-1.76-.29-.23-.68-.28-1.02-.12m-16.7,.19s0,0,0,0c0,0,0,0,0,0m.11-.3s.02,0,.03,.01c-.01,0-.02,0-.03-.01m1.67,.37c0-.15-.06-.27-.13-.39,.21-.88,.55-2.49,.45-3.32-.05-.39-.19-.63-.42-.73-.39-.16-.67,.16-.72,.2-.05,.04,.56,3.88-1.81,4.71-.68,.25-1.62,.26-2.33,.4-.55,.12-1.09,.38-1.14,.38,.26-1.95,3.49-2.55,3.49-4.6,0-1.67-1.59-3.24-1.91-3.54-.1-.1-2.08-2.16-2.46-4.35,.04-.04,.06-.1,.05-.15-.04-.18-.08-.36-.11-.55,0-.25,.02-.49,.08-.74,.5-2.24,2.07-4.64,4.86-4.04,.15,.14,.85,.24,1.4,.85,.3,.43,.46,.88,.48,1.08,.13,1.1-1.42,1.43-1.46,1.41-.01-.02,.03-2.19-1.17-2.19-1,0-2.07,.98-2.33,2.02-.29,1.16,.29,2.13,1.57,2.62,.43,.16,.8,.32,1.16,.48,.61,.27,1.15,.5,1.73,.65-.06,0-.11,0-.17,0-.07,0-.13,.04-.15,.11,0,.02-.07,.25,.1,.53,.25,.38,.84,.64,1.76,.77,1.95,.26,3.93,.79,3.93,2.72,0,1.52-.81,2.18-1.17,2.39-.19-.66-1.03-2.78-3.74-3.76-3.31-1.19-4.52-2.32-5-4.61-.01-.05-.04-.09-.09-.11-.05-.03-.58-.28-.9-.05-.19,.15-.25,.42-.18,.82,.02,.1,.64,2.6,3,3.74,.43,.22,.88,.41,1.32,.61,1.65,.71,3.22,1.39,3.87,2.71-.26,.13-.46,.4-.51,.71l-.63,4.45c-.42-.26-.65-.68-.7-1.22m-12.73-1.65c-.04-.06-.08-.11-.11-.17-.07-.12-.17-.23-.28-.32-.07-.05-1.89-1.33-3.8-.12-.25,.16-.42,.26-.53,.31-.04-.06-.08-.12-.11-.19l-.07-.1c-.79-1.25-1.95-1.4-3.08-1.55,0,0-.04,0-.04,0-.06,0-.11-.01-.17-.02,.11-.5,.08-.85-.34-1.31-.14-.15-.43-.46-.98-1.39-.92-1.55,.53-3.88,1-4.66,.44-.71,3.21-2.45,5.74-2.41,2.05,.03,5.74,1.34,7.35,1.95,.18,2.84,2.73,5.42,2.85,5.55,.01,0,.24,.22,.53,.54-1.43,.8-3.58,2.2-3.88,2.39-.96,.49-1.48,.5-1.99,.5-.47,.01-1,.02-1.62,.38-.21,.12-.37,.32-.45,.55,0,.03-.02,.05-.03,.08m-20.53-4.62c-2.99,.89-7.24-.99-7.29-1.02-.29-.12-.63-.1-.9,.07-.27,.18-.44,.47-.45,.79,0,.33-.09,.91-.53,1.07-.46,.16-1.33-.12-2.14-1.12-.42-.52-.64-.98-.57-1.24,.05-.2,.33-.52,1.35-.9,.62-.23,.99-.6,1.1-1.09,.18-.76-.37-1.34-.73-1.73-.07-.06-.15-.15-.21-.23,.1-.16,.33-.42,.56-.6,.33-.27,.45-.71,.3-1.1-.19-.49-.2-.85-.17-1.04,1.38-.25,3.08-2.4,3.1-2.42,.18-.25,.24-.57,.18-.89-.3-1.46-4.98-4.37-5.03-4.39-1-.61-1.56-1.25-2.2-2-.3-.36-.62-.73-1-1.1-.41-.41-.56-2.72-.31-4.84,.14-1.06,.5-1.79,1.05-2.17,.91-.63,2.28-.29,2.94-.12,.34,.08,.55,.13,.8,.08,.12-.02,.23-.05,.33-.09,.23-.08,.32-.1,.35-.1t0,0c.21,.3,.25,.4,.3,.59,.07,.19,.15,.45,.36,.83,.25,.46,.89,1.32,1.61,2.3,.53,.71,1.07,1.44,1.41,1.95,.51,.76,1.46,2.64,2.71,5.3,.17,.36,.02,1.98-.33,3.41-.05,.18-.03,.38,.03,.53-.19,.61-.4,1.45-.1,1.64,.39,.25,.88,.1,1.39-1.07,.16-.06,.3-.18,.41-.33h0s.3-.28,2.62,.19l.11,.02c.89,.17,2.35,.78,2.92,1.29,.21,.19,.6,.58,1.04,1.03,1,1.01,2.38,2.41,3.33,3.13,.73,.54,1.46,.84,2.08,1-.45,.9-.91,2.09-.84,3.27-2.09,.05-3.5,.29-4.16,.71-.61,.39-3.14,.5-5.13,.38-.1,0-.22,0-.32,.04m-13.16-27.4c-.46,.07-.93,.22-1.35,.51-.21,.14-.39,.31-.56,.5-.54-.47-1-.9-1.38-1.27-.04-.04-.07-.06-.08-.08,.21-.38,1.49-1.04,2.51-1.08,.28,0,.65,.62,.86,1.42m4.63-1.18c2.33-2.24,3.11-2.22,3.38-2,.05,.11-.05,.48-.77,1.73-.45,.75-.83,1.41-.81,2.06-.59,.21-1.08,.44-1.44,.59-.07-.16-.17-.35-.38-.62-.14-.21-.31-.32-.48-.4-.06-.28-.06-.82,.49-1.35m18.3,4.21l.19-.24c.33-.45,.89-1.18,1.16-1.21,.05,0,.18,.06,.34,.2,.42,.36,.81,.83,1.19,1.28,.77,.93,1.56,1.87,2.73,2.18,.17,.05,1.03,.38,2.07,2.81,.19,.44,.55,.76,1.03,.91,.05,.32,.21,.6,.48,.83,1.2,1.01,2.29,1.13,3.26,1.24,.74,.09,1.39,.17,1.89,.67,1.39,1.39,2.7,2.34,3.89,2.81,.54,.22,1.24,.74,1.86,1.26-2.23,.23-4.02,2.07-4.67,4.98,0,.04-.02,.08-.02,.12-.81-.3-1.93-.7-3.11-1.05,.06-.21-.08-.58-.26-1.07-.34-.87-1.58-1.88-1.33-1.01,0,0,.11,.45,.06,.99-.03,.25,0,.49,.11,.71-.88-.22-1.74-.39-2.48-.45,0-.18-.11-.43-.3-.68-.48-.65-.62-.53-.67-.23,0,0-.19,.54,0,.91-1.1,.08-2.21,.42-3.19,.86,.09-.3,0-.77-.1-1.18-.14-.56-.23-1.15-.45-.75,0,0-.53,.56-.45,1.32,.06,.51,.22,.8,.44,.88-1.16,.59-2.06,1.29-2.36,1.8-.03,.02-.04,.06-.06,.08-.51-.1-1.26-.33-1.99-.88-.66-.49-1.57-1.37-2.39-2.2,.11-.54,.28-1.53,.05-1.77-.28-.3-.74,.06-1,.82-.4-.4-.75-.75-.96-.94-.13-.13-.31-.26-.51-.39,.03-.44,.04-1.13-.2-1.21-.29-.09-.51,.37-.61,.77-.71-.34-1.51-.62-2.13-.74l-.12-.02c-.1-.02-.21-.04-.33-.06,.15-.45,.34-1.13,.12-1.09-.26,.04-.73,.49-1.05,.93-.76-.09-1.58-.11-2.1,.18,.14-.69,.36-1.99,.3-2.92l.12-.09c1.52-1.18,6.5-5.03,7.47-5.85,.3-.25,.68-.54,1.07-.83,1.06-.8,2.25-1.7,2.99-2.67m9.95,5.31s.08-.09,.08-.15v-.08c.44-.76,1.45-1.74,2.22-2.33,.34-.25,.53-.32,.6-.34,.02,.02,.06,.05,.13,.12,.47,.46,.93,.53,1.23,.5,.3-.03,.58-.17,.79-.38,1.2-.83,2.18-.42,2.22-.39,.12,.05,.26,.08,.38,.08,1.77,.04,2.37,.95,3.44,2.59,.2,.32,.43,.67,.69,1.04,1.13,1.62,3.67,2.84,6.01,3.79-.02,.02-.04,.03-.06,.06,0,0-.4,.28,0,.82,.42,.53,1.48,1.92,1.64,1.55,.15-.33-.22-1.51-.44-1.98,.24,.09,.49,.19,.72,.27,.47,.18,.95,.36,1.36,.52,2.68,1.09,4.76,1.4,7.42-.27,1.88-1.2,2.65-.66,3.15,.02,.67,.9,1.68,1.34,2.74,1.81,.49,.21,.98,.43,1.47,.7,.5,.29,.59,.51,.59,.56v0s-.04,.08-.05,.12c0,.02-.54,1.8-1.2,4.19-.36,1.29-1.16,1.43-1.52,1.43-4.22-1.74-6.86,.3-8.6,1.66-.66,.51-1.34,1.04-1.73,1.04s-.64-.09-.87-.29c-.06-.09-.13-.17-.19-.26-.14-.22-.29-.43-.46-.65-.1-.18-.2-.38-.31-.61-.29-.59-.63-1.25-1.1-1.89-1.12-1.55-4.78-3.63-6.82-4.71-.37-.42-.88-.76-1.55-.96-.75-.73-2.2-2.02-3.31-2.47-1.05-.42-2.23-1.29-3.52-2.58-.45-.45-.96-.67-1.47-.8-.1-.64-.3-1.61-.63-1.61-.38,0-.7,.94-.83,1.39-.74-.09-1.49-.26-2.3-.94-.1-.08-.1-.13-.1-.19,0-.11,.04-.23,.09-.37l.05-.02Zm46.13-.57s.02,0,.02,0c.06,.02,.12,.04,.18,.05-.13,.3-.31,.89,.37,.86,.88-.05,1.6-.6,.77-1.63,.33-.52,.92-1.46,.92-1.46,.1-.17,.16-.37,.15-.57,0-.15,0-.24,.01-.29,.1,0,.31,.02,.51,.11,.36,.15,.76,.08,1.04-.19,.32-.3,.52-.36,.56-.36,.05,.01,.2,.19,.27,.36,.14,.36,.51,.61,.89,.61,.04,0,.08,0,.11,0,.01,.13-.02,.46-.18,1.23-.12,.55-.23,1.11-.17,1.61-.24,.19-.94,.52-1.65,.7-.37,.09-.65,.4-.71,.78-.06,.36,.1,.72,.4,.93,0,.19-.21,.75-.27,.95-.32,.88-.71,1.98-.26,3.07q.08,.19-.52,.65c-.56,.43-1.4,1.06-1.98,2.22-.8,.98-2.72,1.94-5.14,2.6-2.22,.59-3.02,3.18-3.05,3.29-.06,.2-.06,.43,.02,.62-.92,.29-3.1,.84-3.55-.52,.53-.29,1.07-.86,1.35-1.9,.63-2.26,1.14-4.01,1.18-4.14,.04-.07,.13-.29,.09-.61,.33-.45,.64-1.33,1.03-3.16,.43-2.06,1.8-2.92,3.86-4.2l.87-.56c1.96-1.25,2.85-1.04,2.86-1.04m-31.79,11.02c0-.06-.01-.13-.02-.19,1.94,1.09,4.37,2.59,5.14,3.67,.01,0,.02,.02,.02,.04-.65-.19-1.43-.19-2.39,.11-2.95,.91-3.88,.5-5.57-.23-.36-.15-.75-.32-1.21-.5-.72-.28-1.03-.73-.89-1.31,.18-.67,.86-1.21,1.12-1.18,.03,0,.72,.32,.4,1.63-.13,.53,1.74,.54,2.49,.02,.53-.36,.97-1.1,.91-2.06m-38.9-12.53c-.35-.53-.91-1.27-1.44-1.99-.6-.79-1.19-1.61-1.46-2.04,2.17-1.01,4.37-1.54,4.98-1.21l.04,.02c.71,.41,1.22,.71,1.26,1.13,.04,.39-.2,1.58-3.25,4.29-.04-.07-.08-.14-.12-.2m41.99,17.23c1.75-.54,2.59,.15,3.4,1.21,.22,.41,.46,.77,.75,1.07,.63,.89,1.34,1.73,2.47,1.86,.59,.07,.81,.19,.89,.24,0,.04-.03,.12-.07,.27-.02,.05-.03,.09-.05,.13-.01,.05-.03,.11-.04,.16-.65,.4-1.99,.92-4.01,.22-.04-.01-.09-.01-.13,.02-.05,.02-.43,.29-.21,1.16,.06,.25,.06,.42-.03,.54-.15,.22-.62,.28-1.12,.31-.2,.02-.41,.04-.63,.07,.46-.56,.84-1.42,.84-2.68,0-2.68-1.7-3.7-4.44-4.05,.67-.07,1.44-.23,2.39-.52m-39.37-12.16c-.61-1.29-1.33-2.78-1.92-3.89,1.29-1.13,2.24-2.12,2.87-2.99,.46,.05,1.72,.05,2.3-1.24,.11-.25,.23-.52,.33-.8,.58,.76,1.32,1.84,1.63,2.78,.15,.46,.5,.88,1.01,1.28-1.73,1.37-4.96,3.88-6.23,4.86m2.23-8.58c-.14,.32-.37,.48-.6,.55,.2-.46,.28-.88,.25-1.25-.11-1.03-1.06-1.56-1.83-2l-.03-.02c-.75-.42-2.08-.21-3.33,.16,.12-.32,.35-.71,.58-1.09,.1-.17,.2-.33,.29-.5,.15-.06,.31-.13,.48-.19,2.66-1.01,3.26-.44,4.46,.71,.65,.62,.57,1.77-.26,3.62m40.8,29.05c-.03,.08-.05,.15-.07,.23-.04,.21-.11,.92,.74,1.42,.02,.02,.04,.03,.06,.04-.27,.09-1.41,.34-2.42-1.29,.52,.03,1.16-.04,1.69-.39m11.12,.64h0s-.05-.01-.07-.02c0,0-.23-.05-.52-.12-.68-.68-1.87-1.48-3-2.15,.05-.25,.08-.66-.09-.98-.19-.39-1.03-.05-1.39,.13-.6-.34-1.07-.59-1.24-.67,0-.02,0-.03,0-.05,0-.03,.02-.07,.03-.1,.09-.28,.24-.77-.04-1.2-.26-.4-.82-.64-1.72-.75-.16-.02-.31-.07-.45-.14,.63-.16,1.27-.65,1.99-1.21,1.75-1.36,3.93-3.06,7.64-1.45,.01,0,.03,0,.05,0,0,0,.23,.03,.54-.02,.18,.49,.67,1.23,1.99,1.38-.62,.65-.71,1.3-.59,2.31,.09,.75,.11,1.95,.11,2.73-2.01,2.58-3.24,2.34-3.26,2.33m24.13-13.42c-.61,.09-1.81,.18-2.67-.32,.52-5.8,1.08-6.53,1.75-7.36,.38-.49,.82-1.03,1.28-2.19,1.1-2.73,3.25-3.25,6.52-4.04l.36-.09c2.25-.54,3.54,.28,4.03,.7-.33,.57-.81,1.63-.47,2.62,.25,.75,.93,1.29,2.01,1.63-1.12,1.83-4.01,3.69-8.03,5.12-3.53,1.26-4.5,3.12-4.77,3.91m13.26-10.07c-.78-.22-1.26-.54-1.41-.97-.19-.56,.17-1.31,.36-1.65,3.04,.66,5.54-2.18,7.21-4.07,.35-.41,.66-.75,.89-.98,1.71-1.63,3.18-2.74,5.22-1.07,2.01,1.64,1.39,2.92-.91,6.18-1.2,1.7-6.81,2.14-10.4,1.91-.44-.04-.83,.24-.97,.64m2.58-7.82c1.01-1.41,2.31-1.62,2.71-1.56,.07,.25,.09,.89,.01,1.48-.03,.15-.04,.33-.02,.52-.23,.26-.47,.53-.73,.82-1.64-.53-2.01-.87-2.08-1.04,0-.02,.02-.1,.11-.22m10.4-1.78c-.59-.49-1.15-.77-1.68-.94-.04-1.08,.04-1.94,.17-2.28,.56,.24,1.14,.41,1.71,.59,.39,.11,1.5,.46,1.71,.66-.01,.05-.05,.12-.13,.25-.4,.61-.97,1.2-1.71,1.78-.02-.02-.05-.04-.07-.05m1.36-4.73c-.22-.47-.31-.79-.36-.98,.26,.04,.37,.11,.55,.27,.23,.19,.55,.45,1.08,.61,.02,0,.04,.02,.05,.02-.47,.15-.85,.35-1.13,.6-.07-.24-.16-.43-.2-.53m-120.06,2.24c.08-.08,.19-.12,.3-.12s.22,.05,.31,.12c.07,.08,.11,.19,.11,.3,0,.23-.19,.41-.42,.41-.11,0-.22-.04-.3-.11-.08-.08-.12-.19-.12-.3,0-.12,.04-.22,.12-.3"/><path class="cls-1" d="M40.05,118.1c-.6,.15-1.69,1.69-.89,1.83,0,0,1.49-.84,1.74-1.28,.24-.45-.25-.69-.84-.55"/><path class="cls-1" d="M41.29,120.39c.65,.2,.99-.3,1.34-.89,.35-.6,.05-1.44-.55-.75,0,0-1.44,1.45-.79,1.64"/><path class="cls-1" d="M43.87,121.32c.45-.59,.79-1.39,.64-1.98-.14-.6-.49-.29-.49-.29,0,0-1.19,1.33-1.09,1.78,.1,.45,.5,1.09,.95,.49"/><path class="cls-1" d="M46.9,121.92c.64-.15,.39-.94,.2-1.64-.2-.69-.35-1.19-.65-.9,0,0-.4,.5-.4,1.2s.2,1.49,.85,1.34"/><path class="cls-1" d="M63.43,35.57s-.68,.21-.57,1.06c.1,.85,.28,1.39,1.41,1.25,1.14-.14,.32-2.13,.11-2.34-.21-.21-.95,.04-.95,.04m.34,1.51s-.08-.18-.12-.55c-.02-.16,.02-.19,.04-.21,.06-.01,.13-.04,.18-.05,.11,.25,.2,.61,.19,.81-.18,.02-.27,0-.29,0"/><path class="cls-1" d="M63.36,38.34s-.39,.34-.31,.94c.07,.6,0,1.21,.91,1.17,.92-.03,1.03-.68,.92-1.41-.1-.75-1.02-1.03-1.52-.7m.75,1.28s-.08,.03-.17,.03h-.05c-.01-.07-.02-.16-.02-.23,0-.07-.01-.15-.02-.23,0-.08,0-.15,.02-.19,.04,0,.09,0,.14,.04,.08,.04,.08,.08,.09,.11,.04,.3,.02,.44,.01,.48"/><path class="cls-1" d="M63.39,40.92s-1.03,1.17-.31,1.52c.7,.36,1.31,.53,1.62-.5,.32-1.02-.43-1.7-1.31-1.02m.55,.79c-.02,.09-.06,.15-.08,.2-.03-.02-.08-.03-.14-.06,.05-.1,.14-.23,.22-.33,.02-.01,.03-.01,.04-.03,0,.05,0,.13-.04,.23"/><path class="cls-1" d="M65.09,34.44s-.64,.11-.46,.82c.17,.71,.49,1.73,1.38,1.45,.88-.28,.71-.95,.39-1.89-.32-.93-.85-.59-1.31-.37m.68,1.5s-.01,0-.02,0c-.05-.05-.17-.24-.31-.78l.12-.06s.06-.03,.09-.05c0,0,0,0,0,0,.06,.18,.22,.65,.21,.84-.01,.01-.05,.02-.09,.04"/><path class="cls-1" d="M65.16,37.8s-.32,1.56,.53,1.56,1.38-.18,1.34-1.27c-.04-1.47-1.7-1.66-1.87-.29m1.03,.71s-.1,.04-.29,.05c-.02-.16,0-.4,.04-.59,0-.02,0-.04,0-.07,.02-.15,.07-.22,.09-.23,0,0,.03,0,.06,.03,.04,.03,.13,.14,.14,.41,0,.26-.03,.37-.05,.39"/><path class="cls-1" d="M65.97,39.71s-.74,.22-.74,.81-.35,1.7,.53,1.56c.89-.14,1.69-.35,1.49-1.63-.22-1.27-.67-.92-1.28-.74m.48,1.33c-.06,.08-.27,.15-.48,.19,.01-.07,.02-.14,.02-.19,.02-.16,.04-.31,.04-.47,.03-.04,.11-.08,.17-.1,.08-.02,.16-.05,.22-.07,.01,.05,.02,.11,.04,.18,.04,.26,.01,.4-.02,.46"/><path class="cls-1" d="M66.96,32.52s-.7,.46-.42,1.56c.29,1.1,.96,1.17,1.39,.92,.42-.25,.74-.49,.42-1.59-.31-1.1-.92-1.49-1.38-.89m.45,.66h0s0,0-.01,0c0,0,.01,0,.01,0m.26,1.02s-.06,.05-.15,.1h-.01s-.13-.16-.19-.42c-.11-.43,.02-.62,.09-.69,.05,.1,.11,.25,.17,.44,.12,.38,.11,.53,.09,.58"/><path class="cls-1" d="M67.22,36.46c.21,.77-.04,1.78,.92,1.31,.96-.46,.99-.83,.78-1.81-.28-1.35-1.92-.28-1.7,.5m.99,.32s-.02,.04-.11,.1c-.02-.18-.05-.36-.09-.54,.03-.06,.08-.11,.14-.15,.09,.4,.09,.54,.07,.59"/><path class="cls-1" d="M67.53,39.14c.03,.96,.07,1.81,.89,1.6,.81-.22,1.15-.68,.99-1.85-.21-1.52-1.91-.7-1.88,.25m.86,.77c-.04-.23-.05-.57-.06-.8,0-.01,.02-.07,.09-.15,.06-.06,.12-.09,.17-.11,0,.03,.02,.07,.03,.15,.1,.67,0,.82-.23,.91"/><path class="cls-1" d="M91.52,43.96c-.24-.05-.49,.18-.87,.56l-.29,.3c-.54,.54-1.8,1.84-2.14,1.89-.08,0-.15,.08-.14,.16,0,.09,.08,.16,.16,.16h5.17c.06,0,.11-.04,.14-.09,.02-.06,.02-.12-.02-.17-.41-.57-1.53-2.12-1.69-2.47-.05-.14-.14-.31-.33-.35m-.68,1.95c.16-.15,.31-.31,.31-.31l.11-.11c.08,.13,.18,.27,.28,.42h-.71Z"/><path class="cls-1" d="M20.6,94.68c3.15,10.25,5.36,12.15,4.57,6.31-.79-5.84-1.82-10.4-1.18-11.36,.63-.94,.23-2.44-.08-3.94-.31-1.49,.55-1.81-.63-5.52-1.18-3.7,.15-2.75,.08-4.65-.08-1.89-.71-1.81-.47-4.1,.23-2.29,.31-5.6,.31-5.6,0,0-1.98-.08-2.21,1.27-.25,1.33-.25,16.87,.78,22.39,1.03,5.53-1.81,.15-2.21-6.62-.39-6.79-.16-14.51-.16-14.51,0,0,.31-1.81-1.89-2.29,0,0-.08,18.38,3.08,28.63"/><path class="cls-1" d="M29.59,90.1c0-3.79-1.42-5.52-.79-7.81,.63-2.28,1.03-3.15-.16-5.05-1.18-1.89-.71-1.73-.4-4.1,.31-2.36-.32-5.84-.08-7.73,0,0-1.11-.87-1.27,.15-.16,1.03,.32,13.88,1.02,19.01,.71,5.13-.63,3-1.1-1.34-.32-2.98-1.1-17.19-1.1-17.19,0,0-1.42-1.1-1.73-.08,0,0-.32,17.2,2.92,23.74,3.23,6.55,2.68,4.18,2.68,.4"/><path class="cls-1" d="M34,86c-.55-2.05-.55-2.43-.4-4.26,.16-1.8-.63-3.23-.94-5.68-.32-2.44-.56-8.36-.48-11.59,0,0-.48-.55-1.34,.08,0,0,.08,8.6,.48,11.75,.39,3.15-1.27-.24-1.34-5.68-.08-5.44,0-6.55-1.02-5.52,0,0-.32,16.65,4.33,21.85,0,0,1.27,1.1,.71-.96"/><path class="cls-1" d="M33.21,63.36s-.55,15.3,3.63,19.49c4.18,4.18,1.02,.24,1.02-4.65,0-5.68-1.18-4.42-1.26-5.84,0,0-.23-5.76-.47-7.49-.24-1.73-1.5-2.53-1.11,.24,.4,2.76,1.18,10.02,.16,10.09-1.02,.08-.87-4.57-.95-7.33-.08-2.76,.32-4.34-1.03-4.5"/><path class="cls-1" d="M39.13,62.81s-.71-.63-.48,2.05c.23,2.68,.79,5.29-.16,5.2-.94-.08-.55-3.39-.71-4.73-.16-1.34-.4-3-.94-1.97,0,0,.15,10.34,2.99,14.6,2.84,4.26,2.84,1.03,1.5-1.5-1.35-2.53-1.58-5.68-1.58-7.97s-.62-5.68-.62-5.68"/><path class="cls-1" d="M41.89,72.91c1.82,2.53,1.26,.4,.87-2.21-.39-2.6-.39-6.63-.31-8.59,0,0-.48-.48-1.02,0,0,0,.55,4.66,.07,4.57-.48-.08-.63-1.73-.79-3.39-.16-1.66-.31-1.18-.78-.87,0,0,.16,7.97,1.97,10.48"/><path class="cls-1" d="M18.7,50.05s-.52,3.27-.72,8.11c-.2,4.85,.13,5.61,1.98,5.71,2.42,.13,2.88-1.54,3.26-5.39,.41-4.16,.46-6.32,.53-6.87,.06-.65-1.32-2.29-1.58,.26-.26,2.55-.13,10.48-1.7,10.14-1.57-.32-1.18-4.32-.85-7.06,.33-2.76,1.18-6.03,.13-6.29-1.05-.26-1.05,1.38-1.05,1.38"/><path class="cls-1" d="M24.59,51.61s-2.03,11.72,.07,11.81c3.18,.13,2.68-3.23,3.01-6.9,.32-3.67,.65-4.71-.13-4.71s-.98,3.53-1.11,5.43c-.14,1.9,0,4.38-.92,4.26-.92-.13-.84-2.83-.52-5.12,.72-5.23,.4-5.89-.4-4.77"/><path class="cls-1" d="M29.44,52.92s-.26-.52-.65-.46c0,0-.37,4.08-.5,6.5-.13,2.43,.3,3.52,1.87,3.52s1.44-2.83,1.51-5.11c.06-2.29,.65-4.33,0-4.52-.66-.19-.72,1.51-.79,3.02-.07,1.5-.2,4.84-.86,4.84s-1.05-.79-.92-3.21c.14-2.42,.33-4.58,.33-4.58"/><path class="cls-1" d="M75.09,62.71c.56-.15,.45-.48,.9,0,.46,.48,.53,.55,1.08,.45,.56-.1,1.25,.18,1.56,.52,.31,.35,.81,.28,.73,.6-.07,.31-.59,.66,.66,.9,1.26,.24,1.73,.42,2.09-.03,.35-.46,.91-.46-.14-1.05-1.04-.59-1.39-.52-2.23-1.35-.84-.84-.73-.84-1.29-1.05-.56-.21-1.22-.52-2.06-.28-.83,.25-1.91,.25-1.91,.25,0,0-.37,.27-.1,.58,.28,.31,.14,.59,.7,.46"/><path class="cls-1" d="M80.64,65.88c-.42-.04-.66-.35-1.04-.35,0,0-.63-.07-.28,.48,.34,.56,.66,.62,1.04,.52,.38-.11,.7-.62,.28-.66"/><path class="cls-1" d="M83.63,66.26s.83-.04,1.29-.28c.44-.24,.8,.1,1.21,.18,.42,.07,.73,.07,1.01-.42,.28-.49-.07-.79-.42-1.15-.34-.35-.9-.31-1.32-.11-.42,.21-.31,.35-.74,.42-.41,.07-1.56,1.21-1.04,1.35"/><path class="cls-1" d="M88.64,66.57c.18-.04,.69,.1,.91,.06,.2-.04,.56-.04,.2-.62-.34-.59-.2-.73-.87-.63-.66,.1-.56,.35-.56,.35,0,0,.14,.86,.31,.84"/><path class="cls-1" d="M91.18,74.18c.1,.1,.41,.35,.52-.07,.11-.41,.11-1.08-.8-.84,0,0-.3,.24-.1,.45,.21,.21,.29,.34,.39,.45"/><path class="cls-1" d="M40.42,55.35c-.96,7.12,1.84,4.58,1.84,4.58,.13-1.78,.44-4.2,.44-4.2-.25-.39-.57-.19-.64,.7-.06,.89-.12,2.99-.82,2.79-.7-.19-.13-3.88-.44-4-.32-.12-.38,.12-.38,.12"/><path class="cls-1" d="M36.98,54.53s-.51,3.49-.51,4.57,.58,1.9,1.98,1.78c1.4-.13,1.08-1.97,1.21-3.5,.13-1.52,.25-2.41,.25-2.41-.7-.26-.63-.07-.89,1.9-.26,1.97-.19,2.8-1.14,2.86-.95,.07-.44-3.68-.32-4.58,.13-.89-.57-.63-.57-.63"/><path class="cls-1" d="M33.04,53.64s-.57,3.43-.57,6.1,3.04,1.9,3.17-.06c.13-1.97,.7-5.47,.7-5.47-1.01-.76-1.08,1.28-1.27,3.06-.19,1.77-.25,2.86-1.2,2.67-.95-.19-.32-5.02-.25-5.85,.06-.83-.57-.44-.57-.44"/><path class="cls-1" d="M31.65,116.77c-.48,.87-.24,1.14,.29,1.2,.54,.07,.67-1.47,.67-1.47-.16-.64-.5-.61-.96,.27"/><path class="cls-1" d="M33.72,116.34s-.7-.1-.56,.97c.13,1.07,.7,1.2,.97,1,.27-.2,.17-1.17,.17-1.4s-.26-.9-.57-.56"/><path class="cls-1" d="M35.17,116.11s-.14,.86,.26,1.44c.41,.57,1.14,.87,.9-.34-.23-1.2-.5-1.54-1.16-1.1"/><path class="cls-1" d="M23.95,114.17c-.26-.14-.53-.24-.73,.2,0,0-.23,.66,.43,.66s.57-.73,.29-.86"/><path class="cls-1" d="M21.14,115.84v.06s-.04,.53,.33,.53,.41-.17,.44-.43c.03-.26-.57-.56-.77-.16"/><path class="cls-1" d="M22.07,119.42s-.4,.43,.11,.77c.5,.33,.63,.23,.5-.4-.13-.64-.34-.61-.61-.36"/><path class="cls-1" d="M25.22,119.31s.4,.24,.47,.07c.06-.17-.11-.4-.11-.4,0,0-.63-.17-.37,.33"/><path class="cls-1" d="M25.76,122s-.2,.63,.3,.7c.5,.07,.57-.46,.36-.67-.2-.2-.67-.17-.67-.03"/><path class="cls-1" d="M28.5,122.79s.47,.1,.47,0,.07-.33-.1-.47c-.17-.13-.6,.03-.37,.47"/><path class="cls-1" d="M27.97,132.64s.97-2.28-.4-1.85c0,0-.7,.48-.5,1.58,0,0-.7-.27-.23,.67,.47,.94,.8,1.8,1.71,.94,.9-.87-.57-1.34-.57-1.34"/><path class="cls-1" d="M31.38,134.21s-.8,.63-.57,.93c.23,.3,1.27,.44,1.37,.04,.09-.41-.44-1.28-.81-.97"/><path class="cls-1" d="M34.86,134.84s-.91,.26-.47,.74c.44,.47,1.31,.54,1.34,.43,.03-.1,.46-1.44-.87-1.17"/><path class="cls-1" d="M32.18,130.82s-1.01,.57-.6,.97c.4,.41,1.14-.33,1.14-.33,0,0,.2-.77-.54-.64"/><path class="cls-1" d="M35.33,129.75c.7,.26,1.03-.3,1.03-.3,0,0-.5-1.27-1.14-.8,0,0-.61,.83,.1,1.1"/><path class="cls-1" d="M39.54,134.3c.7,.33,1.07,.04,1.07,.04,0,0,.47-.73-1.37-1.1,0,0-.4,.73,.3,1.06"/><path class="cls-1" d="M49.61,133.9c0-.7-.8-.43-.8-.43,0,0-.47,.13-.5,.43-.04,.31,.6,.4,.6,.4,0,0,.7,.3,.7-.4"/><path class="cls-1" d="M49.68,137.95c-.37-.19-.81,.27-.81,.27,0,0-.27,.9,.64,.9s.83-.6,.83-.6c0,0,.07-.16-.67-.57"/><path class="cls-1" d="M54.33,136.58c-.03-.53-.56-.84-.96-.78,0,0-.88,.07-1.04,.81-.17,.73,1.21,.73,1.21,.73,0,0,.84-.24,.8-.77"/><path class="cls-1" d="M53.29,139.39s.04,.67,.8,.67,.7-.5,.7-.5c0,0-1.31-.74-1.51-.17"/><path class="cls-1" d="M57.95,136.78c.87-.03,.64-.66,.64-.66,0,0-.27-.37-.84-.34-.57,.04-.67,0-.7,.47,0,0,.03,.57,.9,.53"/><path class="cls-1" d="M49.44,122.23c.51-.05,.11-1.66,.11-1.66,0,0-.36-.96-.65-.9,0,0-.78-.02-.48,1.24,.31,1.27,.5,1.38,1.01,1.33"/><path class="cls-1" d="M51.35,121.52c.34,.49,.62,.54,1.04,.28,.42-.26-.79-2.07-.79-2.07,0,0-1.15-.63-1.04,.02,0,0,.45,1.29,.79,1.77"/><path class="cls-1" d="M36.33,121.13c-.36-.02-1.66,.9-1.18,1.12,0,0,.67,.2,1.12-.31,.46-.5,.43-.78,.06-.81"/><path class="cls-1" d="M38.38,122.11s-1.52,1.46-.93,1.77c.59,.31,1.06-.53,1.29-1.15,.22-.62-.06-.9-.37-.62"/><path class="cls-1" d="M39.85,124.42c.17,.45,.59,1.1,1.01-.06,.42-1.15,.22-1.26-.12-.93,0,0-1.06,.53-.9,.98"/><path class="cls-1" d="M43.59,124.92c.25-1.4,.03-1.26-.34-.93,0,0-.96,.79-.7,1.16,.25,.36,.79,1.18,1.04-.23"/><path class="cls-1" d="M46.29,126.87c.76,.06,.53-1.12,.33-1.97-.2-.84-.42-.87-.65-.87,0,0-.44-.09-.42,.92,.03,1.02-.02,1.86,.74,1.92"/><path class="cls-1" d="M48.96,124.56s-.75,1.63,.26,2.28c1.01,.65,.65-.53,.44-1.26-.19-.73-.48-1.46-.71-1.01"/><path class="cls-1" d="M51.94,124.3s-.56-.09-.37,.79c.19,.88,.48,1.66,1.35,1.49,.87-.17-.44-1.94-.98-2.28"/><path class="cls-1" d="M56.58,126.42c.46-.87-1.8-2.56-2.16-2.33,0,0-.67,.33,0,1.07,.67,.72,1.72,2.13,2.16,1.26"/><path class="cls-1" d="M59.34,125.93c.54-.33-.84-1.65-.84-1.65,0,0-1.02-1.1-1.24-.83,0,0-.57,.63,.23,1.44,.78,.81,1.32,1.38,1.86,1.03"/><path class="cls-1" d="M44.06,128.36s-1.46,2.05-.56,2.42c.9,.37,.99-1.46,.96-2.22-.03-.76-.39-.19-.39-.19"/><path class="cls-1" d="M57.62,127.89s.51,1.03,.62,1.46c.11,.42,.53,1.15,.99,.48,.45-.67,.17-.9-.28-1.49-.45-.59-1.64-1.05-1.33-.45"/><path class="cls-1" d="M27.42,45.6s-1.47-.34-2.02,1.27c-.55,1.61-.17,2.26,.16,2.17,.33-.08,.51-1.61,.92-1.46,.4,.16-.46,1.51,.1,1.67,.57,.15,.76-1.54,1.2-1.39,.43,.16-.44,1.54,.21,1.71,.63,.18,1.53-3.39-.57-3.98"/><path class="cls-1" d="M31.63,47.04s-1.35-.25-1.8,1.23c-.45,1.48-.08,2.05,.22,1.97,.3-.08,.41-1.48,.79-1.35,.38,.13-.37,1.39,.15,1.51,.52,.12,.65-1.42,1.05-1.29,.4,.12-.35,1.4,.24,1.54,.59,.15,1.28-3.13-.64-3.6"/><path class="cls-1" d="M23.28,47.82c.81,.27,2.26-3.91-.39-4.81,0,0-1.85-.53-2.71,1.34-.84,1.87-.41,2.67,.03,2.61,.42-.07,.78-1.88,1.3-1.66,.51,.22-.72,1.76,0,2,.71,.23,1.11-1.77,1.66-1.54,.54,.23-.69,1.79,.12,2.06"/><path class="cls-1" d="M35.5,48.48s-1.16-.27-1.61,1.01c-.44,1.28-.14,1.79,.13,1.73,.26-.06,.4-1.28,.73-1.16,.33,.13-.37,1.2,.09,1.32,.44,.12,.61-1.21,.95-1.1,.34,.13-.34,1.22,.16,1.37,.51,.14,1.21-2.7-.45-3.17"/><path class="cls-1" d="M39.28,52.34c.42,.11,1-2.22-.36-2.61,0,0-.96-.22-1.33,.83-.37,1.05-.11,1.47,.1,1.42,.22-.05,.33-1.05,.6-.95,.26,.1-.3,.99,.06,1.09,.37,.09,.5-1.01,.79-.91,.28,.11-.28,1,.13,1.13"/><path class="cls-1" d="M42.62,53.13c.44,.06,.69-2.34-.72-2.53,0,0-.98-.09-1.19,1.01-.22,1.09,.09,1.47,.29,1.39,.21-.08,.19-1.09,.47-1.03,.28,.06-.16,1.02,.21,1.06,.39,.05,.36-1.06,.66-1,.29,.06-.14,1.03,.29,1.09"/><path class="cls-1" d="M20.96,50.86c-.24,1.37-1.33,9.41-.62,9.55,.71,.15,.62-3.5,.8-5.34,.19-1.85,.52-4.69,.52-4.69,0,0-.48-.9-.71,.48"/><path class="cls-1" d="M25.95,52.56c-.18,1.08-1,7.41-.47,7.52,.54,.11,.47-2.75,.61-4.21,.14-1.46,.39-3.69,.39-3.69,0,0-.35-.71-.54,.38"/><path class="cls-1" d="M30.05,53.66c-.13,.86-.66,5.91-.12,5.96,.54,.06,.34-2.2,.42-3.36,.08-1.15,.22-2.93,.22-2.93,0,0-.39-.53-.52,.32"/><path class="cls-1" d="M34.24,54.2c-.15,.66-.75,4.5-.21,4.53,.54,.04,.37-1.67,.46-2.55,.09-.89,.26-2.23,.26-2.23,0,0-.38-.4-.52,.25"/><path class="cls-1" d="M38.65,54.94s-.36-.29-.47,.22c-.1,.52-.52,3.53-.03,3.53s.28-1.32,.33-2c.05-.69,.16-1.75,.16-1.75"/><path class="cls-1" d="M41.83,55.4s-.3-.25-.39,.19c-.09,.45-.44,3.02-.02,3.01,.42,0,.23-1.13,.28-1.72,.04-.59,.14-1.49,.14-1.49"/><path class="cls-1" d="M107.01,52.11v2.53s1.27-.1,1.27-.42,.52,.16,.52,.16c0,0-.21-1.42-1.79-2.26"/><path class="cls-1" d="M108.91,59.21c-.48,0-.9,.15-.85-1.05,.06-1.21,.22-2.1-.95-1.68v3.89s1.74,1.22,2.74,0c0,0,.41-2.36-.31-3.99,0,0-.16-.16-.58,.26,0,0,.42,2.58-.05,2.58"/><path class="cls-1" d="M107.11,62.1s-.21,2.9,0,2.9c.22,0,1.11-.05,1.06-1.85-.06-1.78-.69-1.56-1.06-1.05"/><path class="cls-1" d="M109.22,61.69s-.38-.06-.38,1.15-.31,2.06,.06,2.06,.68-1.05,.95-2.11c.26-1.05-.11-1.37-.63-1.1"/><path class="cls-1" d="M107.38,67.62c.68,.05,1.68,0,1.84-1.16,.15-1.16-1.17-.84-2.16,.11,0,0-.37,1,.31,1.05"/><path class="cls-1" d="M107.07,69.04s-.16,3.31,.04,3.15c.22-.16,1.21-2.21,1.48-3,.26-.79-1.26-.74-1.52-.16"/><path class="cls-1" d="M106.56,90.28c.45,1.93,.12,1.82-.34,1.82s-.91-2.72-1.59-.91c-.39,1.04-1.03,2.61,.22,2.5,1.25-.12,4.43,.11,3.41-2.39-1.02-2.5-2.16-2.96-1.71-1.03"/><path class="cls-1" d="M109.4,98.24s.41-.37,.24-1.06c-.18-.69-2.25-.24-2.25-.24l-4.66,.24s-.56,1-.38,1.18c0,0,6.71,.11,7.05-.12"/><path class="cls-1" d="M105.19,102.25c-.03-1.83-.38-3.38-1.83-3.31,0,0-1.97-.1-2.04,1.21-.07,1.31-.21,3.24,.38,3.24s.14-2.34,.62-2.38c.49-.04,.52,.93,.52,1.58s.86,.94,.79-.06c-.07-1-.49-1.76,.03-1.63,.52,.14,.66,.24,.55,1.18-.1,.93,1,2,.97,.17"/><path class="cls-1" d="M107.12,100.78c.45-.03,.48,.86,.48,1.47s.8,.85,.74-.07c-.07-.92-.45-1.62,.03-1.49,.48,.12,.6,.21,.51,1.08-.09,.86,.92,1.85,.89,.16-.03-1.68-.35-3.12-1.69-3.05,0,0-1.81-.1-1.87,1.11-.06,1.21-.19,3,.35,3s.12-2.17,.57-2.2"/><path class="cls-1" d="M59.81,121.8c.74,.05,.37-3.52-.45-2.86,0,0-.41,.32-.45,1.14-.04,.81,.16,1.67,.9,1.71"/><path class="cls-1" d="M62.67,121.47c-.2-1.35-.81-1.97-.86-1.47,0,0-.25,.82-.04,1.72,.21,.9,1.11,1.11,.9-.25"/><path class="cls-1" d="M65.59,121.84c.2-.2-.9-2.29-1.36-1.68,0,0-.53,.24,.08,1.06,.62,.81,1.07,.81,1.27,.61"/><path class="cls-1" d="M68.53,125.98c-.08-.29-.62-.74-.82-.7,0,0-.58,.28-.08,.77,.48,.5,.98,.21,.9-.07"/><path class="cls-1" d="M71.03,126.14c.66-.33-.65-1.52-1.47-1.47,0,0-.46,.04,0,.7,.45,.66,.82,1.11,1.47,.78"/><path class="cls-1" d="M74.06,130.24c.78,.66,1.35,.66,.94-.16-.41-.83-.82-1.4-1.14-1.04,0,0-.57,.54,.2,1.19"/><path class="cls-1" d="M77.79,129.55c.21-.54-1.11-2.3-1.64-2.26,0,0-.69,.08-.08,1.19,.61,1.11,1.52,1.6,1.72,1.07"/><path class="cls-1" d="M79.75,128.89c-.04-.53-.98-2.5-1.1-1.89,0,0-.36,1.27,.2,1.97,.57,.69,.95,.46,.9-.08"/><path class="cls-1" d="M82.42,128.1c-.12-.78-.77-1.96-1.06-1.71,0,0-.61,.28-.08,1.19,.54,.9,1.27,1.31,1.14,.53"/><path class="cls-1" d="M84.26,127.08c1.31,0-.28-1.02-.41-1.23-.12-.2-.7-.32-.66,0,0,0-.24,1.23,1.06,1.23"/><path class="cls-1" d="M84.26,131.34c-.08-.45-.41-.74-.73-.74,0,0-.86-.08-.29,.61,.58,.7,1.1,.58,1.02,.13"/><path class="cls-1" d="M86.6,130.97c-.45-1.22-.86-1.84-1.31-1.55,0,0-.37,.53,.2,1.34,.57,.82,1.56,1.44,1.11,.21"/><path class="cls-1" d="M88.19,129.34c-.16-.98-1.84-3.41-1.84-2.5,0,0-.17,.78,.4,1.56,.57,.77,1.6,1.93,1.43,.94"/><path class="cls-1" d="M82.91,134.62c-.25,.41-.58,1.56,.16,1.22,0,0,1.22-.69,1.02-1.06-.2-.36-.94-.56-1.18-.16"/><path class="cls-1" d="M85.24,137.12c-.65,.16-1.26,.78-.9,1.19,0,0,.37,.7,1.19,0,.82-.69,.37-1.36-.29-1.19"/><path class="cls-1" d="M95.73,138.35s-1.47,1.19-.24,1.27c1.23,.08,1.43-.33,1.06-.91-.37-.57-.41-.61-.82-.36"/><path class="cls-1" d="M103.76,139.41c-.33,0-1.52,.66-1.02,1.19,0,0,.98,.42,1.47-.29,.49-.69-.13-.9-.45-.9"/><path class="cls-1" d="M106.91,136.99c-.57,.25-.9,.74,0,1.15,0,0,.61,.12,.99-.48,.37-.62-.42-.9-.99-.66"/><path class="cls-1" d="M101.67,136.47s-1.23,1.55,.04,1.63c1.27,.08,.62-1.07,.62-1.07,0,0-.45-.9-.66-.57"/><path class="cls-1" d="M101.71,133.89c-.61-.53-.93-.25-1.23,.12,0,0-.81,1.43,.17,1.39,.98-.04,1.68-.98,1.06-1.51"/><path class="cls-1" d="M106.38,133.6c-.16-.54-.33-.75-.78-.5,0,0-.98,.73-.37,.98,.61,.25,1.31,.05,1.15-.48"/><path class="cls-1" d="M92.16,130.24s-.32,.66,.41,.74c.74,.09,.77-.41,.74-.65-.04-.24-.78-.57-1.15-.09"/><path class="cls-1" d="M93.31,125.49s-.21,.94,.57,1.18c.78,.24,.53-.53,.46-.74-.08-.2-1.07-.94-1.03-.44"/><path class="cls-1" d="M97.33,127.42s-.69,.73-.25,.89c.45,.17,1.39-.65,.25-.89"/><path class="cls-1" d="M100.27,125.4c.66,.09,1.11-.7,.17-.86,0,0-.83,.77-.17,.86"/><path class="cls-1" d="M96.63,125.16s-.91,.09-.42,.58c.5,.49,.7,.49,.9-.13,.21-.62,.09-.58-.49-.45"/><path class="cls-1" d="M98.19,122s-.21,.62,.32,.94c.54,.33,.54,.04,.58-.33,.04-.37-.9-1.11-.9-.62"/><path class="cls-1" d="M97.17,120.62s.45,.16,.82-.13c.37-.28-.94-.61-.82,.13"/><path class="cls-1" d="M104.54,116.89c.4-.37-.49-.78-.74-.25,0,0,.32,.62,.74,.25"/><path class="cls-1" d="M128.3,137.21c.96-.28,1.61-1.92-.08-1.49,0,0-.79,.79-.79,1.01s-.09,.75,.87,.48"/><path class="cls-1" d="M122.17,134.59s-.28,.98,.11,.93c.4-.06,1.21-.31,.7-.79-.51-.47-.68-.39-.81-.14"/><path class="cls-1" d="M119.3,133.29s-.85,.33-.87,.65c-.03,.31-.03,.95,.76,.42,.78-.53,1.26-1.57,.11-1.07"/><path class="cls-1" d="M116.06,132.16s-1.01,.28-.7,.68c.31,.39,1.09,1.06,1.29,.34,.2-.74-.02-1.35-.59-1.02"/><path class="cls-1" d="M123.1,130.85s-.79,.33-.65,.64c.14,.32,.6,.65,.99,.23,.39-.42,.41-1.21-.34-.87"/><path class="cls-1" d="M125.57,134.08c.62-.17,1.49-1.71,.17-1.49,0,0-.48,.16-.71,.67-.22,.51-.09,.99,.54,.82"/><path class="cls-1" d="M110.84,121.29s.03,1.02,.72,.82c.69-.19,.39-.82,.39-.82,0,0-1.34-.78-1.11,0"/><path class="cls-1" d="M110.74,125.96c-.62-.32-.65-.43-.85-.16,0,0-.52,.98,.07,1.01,.59,.04,1.4-.52,.78-.85"/><path class="cls-1" d="M113.56,123.03c.1-.43-2.13,.52-1.24,.91,0,0,.71,.36,1.07,.17,.36-.2,.06-.66,.17-1.08"/><path class="cls-1" d="M115.64,118.74c.59-.02,.56-.58,.36-.91-.2-.33-1.18-.36-1.11,.29,0,0,.16,.65,.75,.62"/><path class="cls-1" d="M115.91,120.58c1.28,.74,.85-1.31,.23-.95,0,0-.81,.6-.23,.95"/><path class="cls-1" d="M117.9,119.04c1.37,0,.62-1.37,.1-1.12,0,0-.63,.49-.69,.62-.07,.13-.51,.49,.59,.49"/><path class="cls-1" d="M116.33,122.83c-.03,.29,.32,.46,.88,.29,.56-.17,.56-.91-.13-.75,0,0-.72,.17-.75,.46"/><path class="cls-1" d="M119.4,121.98c.29-.1,.19-.69,.23-1.11,.03-.43-.17-.63-.66-.26,0,0-.32,.06-.29,.48,.04,.42,.42,.98,.72,.88"/><path class="cls-1" d="M130.86,115.02c.47-.42,.82-1.17-.06-1.27,0,0-.59,0-.55,.63,.03,.61,.16,1.07,.61,.65"/><path class="cls-1" d="M132.27,115.64s.62,.3,1.01,.22c.4-.06,.2-.68-.09-.84-.29-.17-1.44,.53-.92,.62"/><path class="cls-1" d="M134.55,113.1c1.01,.19,1.21-1.04,.75-.95,0,0-1.76,.75-.75,.95"/><path class="cls-1" d="M132.46,112.8c.53-.04,.89-.21,.56-.46-.33-.26-.82-.78-.82-.48,0,0-.26,.97,.26,.94"/><path class="cls-1" d="M128.89,47.94c-.08-1.07-.32-1.31-.4-1.18,0,0-.23,2.93,.05,3,.28,.08,.43-.75,.35-1.81"/><path class="cls-1" d="M114.54,54.54c-.59,.08-.79-.83-.83-1.43-.04-.59-.55-.95-.83-.2,0,0,.11,2.51,1.3,2.41,1.5-.12,1.9-.87,1.31-2.84,0,0-.32-.56-.8-.16-.47,.39,.44,2.13-.16,2.22"/><path class="cls-1" d="M116.4,51.82s-.24,2.71,.94,2.76c1.48,.06,1.98-.69,1.68-2.89,0,0-.23-.65-.75-.28-.52,.36,.13,2.36-.47,2.37-.59,0-.65-1-.61-1.65,.05-.64-.41-1.09-.79-.32"/><path class="cls-1" d="M119.92,51.02s-.26,2.81,.83,2.84c1.37,.04,1.84-.75,1.58-3.01,0,0-.2-.66-.69-.27-.49,.38,.08,2.43-.46,2.45-.55,0-.59-1.02-.54-1.69,.04-.66-.36-1.12-.72-.32"/><path class="cls-1" d="M123.24,49.48l-.04,2.4s-.2,1.62,1.54,1.67c1.74,.03,1.3-2.22,1.3-3.17s-.12-2.37-.55-2.29c-.44,.08-.56,.59-.52,1.62,.04,1.03,.24,2.25-.31,2.21-.55-.04-.51-.79-.51-1.82s-.79-1.78-.91-.63"/><path class="cls-1" d="M127.94,47.11s-1.02-.91-1.02,.47-.4,5.34,1.9,5.46c2.29,.12,1.93-2.84,1.93-4.7s.36-3.83-.4-3.32c-.75,.51-.83,1.06-.91,2.41-.08,1.34,.28,3.52-.39,3.63-.67,.12-1.13-.12-1.02-2.09,.08-1.54-.09-1.86-.09-1.86"/><path class="cls-1" d="M133,48.49c-.12-2.18,.03-3.76-.44-3.76,0,0-.79-.08-.84,1.03-.03,1.11-.46,5.46,.99,6.12,1.47,.67,3.48,.28,3.52-1.34,.04-1.62,.04-5.22,.04-6.17s-.95-1.42-1.15-.08c-.2,1.34,.59,6.56-.63,6.47-1.23-.07-1.39-.11-1.5-2.28"/><path class="cls-1" d="M133.91,45.09s-.43,3.87,.12,4.11c.55,.24,.27-2.64,.31-3.52,.04-.86-.35-1.3-.43-.59"/><path class="cls-1" d="M128.2,106.07c.95,.11,3.92-6.6,4.64-10.91,.73-4.31,1.01-5.31,1.85-7.27,.84-1.95,2.01-9.84,2.01-13.82s.22-7.61,0-8.22c-.22-.62-.45-.84-1.12-.33-.67,.51-1.5,.22-1.39,2.01,.11,1.8,.22,12.93-.4,14.72-.61,1.79-1.23,4.53-1.73,6.38-.5,1.84-1.12,3.91-.73,.11,.39-3.81,1.18-3.91,1.23-6.21,.06-2.3,.62-5.04,.5-8.34-.11-3.31,.17-7.5,.17-7.5,0,0-1.67-2.24-1.73-.23-.05,2.01,.11,12.42-.05,13.83-.17,1.4-.62,3.52-.45,4.92,.17,1.4-.5,1.85-.61,4.14-.11,2.29-.73,10.97-1.85,13.32-1.11,2.35-1.28,3.3-.33,3.41"/><path class="cls-1" d="M126.69,95.61c.73-.45,3.58-7.22,3.75-17.52,.17-10.29,.56-11.41,.11-12.19-.44-.79-1.4-1.01-1.22,1.11,.16,2.12-.39,16.95-1.12,17.01-.61,.5,.5-12.66,.22-17.76l-.05-.11s-.9-2.4-.95-.55c-.06,1.85-.12,9.97-.34,10.59-.23,.62-1.12,4.09-.84,6.55,.28,2.46,.5,8.73,.17,10.35-.33,1.62-.45,2.96,.28,2.52"/><path class="cls-1" d="M126.01,72.45c.17-2.18,.74-6.53,.57-7.65,0,0-1.21-.39-1.31,.94-.06,.79-.09,4.24-.26,5.42-.17,1.17-.17,6.26-.89,6.21-.73-.06-.33-2.52-.11-4.7,.22-2.18,1-4.39,.45-7.52,0,0-1.02-1.11-1.08-.11-.05,1.01,.13,3.66-.21,4.1-.33,.45-.62,1.9-.56,3.52,.06,1.63,.34,4.25-.28,5.25-.62,1.01-.4,2.3-.62,3.64-.22,1.34-.56,4.37-1.73,6.27-1.17,1.9,1.34,2.41,3.86-4.76,2.51-7.16,2.01-8.45,2.18-10.63"/><path class="cls-1" d="M119.31,65.13c0,1.12-.12,8.33-.68,9.56-.56,1.23-.73,3.75-1.06,4.42-.33,.67-1.62,3.85-2.23,4.86-.62,1-.51,2.24,.61,1.4,1.12-.84,4.58-5.31,5.09-9.23,.5-3.91,1.12-6.44,1.29-7.5,.17-1.06,.49-3.9,.15-4.13-.34-.22-1.01-.44-1.01,.62s-.31,4.75-.88,6.54c-.56,1.79-.61,2.46-.67,.22-.06-2.24,.41-6.65,.13-7.7,0,0-.73-.18-.73,.94"/><path class="cls-1" d="M115.61,63.95s-.12,1.01-.12,4.14c0,3.92-2.01,7.83-3.13,10.29-1.12,2.47,.39,1.8,1.29,1.01,.89-.79,2.57-3.75,3.41-5.48,.84-1.73,1.64-9.84,1.64-9.84-.12-.28-.9-.51-1.18-.06-.27,.44-.61,.62-.84,.11-.22-.5-1.07-.16-1.07-.16"/><path class="cls-1" d="M114.15,71.56c.51-1.34,.68-7.33,.68-7.33,0-.95-.45-1.56-.56,.12-.11,1.68-.64,.92-.92-.52-.28-1.46-.81,2.81-.58,4.27,.22,1.45-1.25,5.36-1.8,7.88-.56,2.52,2.68-3.06,3.18-4.4"/><path class="cls-1" d="M114.83,57.19c-.23,1.91,.09,2.69-.55,2.46-.64-.22,0-3.14-.5-3.14s-.41,1.14-.5,1.95c-.09,.82-.23,3.1,.96,3.1,2,0,1.54-3.78,1.54-4.46s-.73-1.82-.96,.09"/><path class="cls-1" d="M118.84,55.96c-.51,0-.73,.14-.69,1.23,.05,1.09,.18,2.19-.37,2.05-.54-.14-.36-1.36-.31-2.37,.04-1-.36-.95-.36-.95,0,0-.51-.14-.51,.91s-.23,4.55,.86,4.65c1.09,.09,1.69-.87,1.78-3.19q.09-2.32-.41-2.32"/><path class="cls-1" d="M121.11,62.25c1.87,.18,1.51-3.15,1.56-3.97,.04-.82,.22-2.73-.23-2.77-.45-.05-.42,.5-.42,1.41s-.08,3.05-.63,3.09c-.55,.05-.68-1.04-.55-2.59,.14-1.55,.14-1.78-.14-1.82,0,0-.68,0-.68,1.23s-.77,5.23,1.09,5.42"/><path class="cls-1" d="M126.39,55.19c-.55-.14-.91,0-.91,1.09s.14,4.46-.5,4.46-.81-.96-.81-2.68,.46-2.73,.14-2.83c0,0-.92-.5-.96,1.19-.05,1.69-.32,6.23,1.04,6.46,1.37,.23,2.23-1.5,2.09-3.59-.14-2.09,.46-3.95-.09-4.09"/><path class="cls-1" d="M128.22,54.78s-.73-.1-.82,1.27c-.09,1.37,.09,3.91,.09,5.14s.14,2.32,1.32,2.46c1.18,.14,2.05-1.78,2.05-3.83s.5-5.23-.28-5.37c-.77-.13-.59,.59-.54,1.37,.04,.76,0,5.82-.91,5.69-.91-.14-1.05-2.28-.77-4.51,.32-2.6-.14-2.23-.14-2.23"/><path class="cls-1" d="M129.13,55.6s-.32-.23-.32,1.09-.32,3.5,.18,3.55c.5,.05,.13-1.18,.32-2.36,.18-1.19,.18-2.28-.18-2.28"/><path class="cls-1" d="M136.5,53.83c-.68-.09-.96-.23-1.01,1.22-.04,1.46-.13,5.83-.13,5.83,0,0,.13,1.73-1.05,1.73s-1.18-.73-1.18-2.32,.41-5.83-.6-5.96c0,0-.77-.04-.82,1.41-.04,1.46,.05,5.55,.05,6.28s.31,2.46,2.27,2.73c1.96,.27,2.55-2.55,2.6-5.33,.05-2.77,.55-5.51-.14-5.6"/><path class="cls-1" d="M134.32,55.33s-.5-.19-.55,1.04c-.05,1.22-.27,5,.19,5s.53-.23,.5-1.27c-.09-3.05,.27-4.74-.14-4.78"/><path class="cls-1" d="M112.32,20.09l.63-4.51c.09-.65-.06-1.1-.87-1.22l-1.05-.15-.94,6.67,1.04,.14c.83,.12,1.1-.28,1.19-.94m-1.55,.36l.35-2.46,.64,.08,.09-.61-.63-.09,.35-2.54,.33,.04c.4,.06,.52,.2,.46,.59l-.65,4.6c-.05,.38-.2,.5-.61,.44l-.33-.05Z"/><path class="cls-1" d="M59.17,53.45s-.92,.08-.92-.84v-.85h1.78c.73,0,1.33-.55,1.33-1.23s-.6-1.23-1.33-1.23h-3.33v.62s.49-.14,.49,.5v2.57s-.1,.44-.57,.44v.48h2.51l.03-.45Zm.28-3.7c.35,0,.63,.29,.63,.64s-.28,.64-.63,.64h-1.2v-1.29h1.2Z"/><path class="cls-1" d="M52.19,81.54h2.57s.44,.1,.44,.58h.48v-2.52l-.45-.03s.08,.92-.84,.92h-.84v-1.77c0-.74-.55-1.34-1.23-1.34s-1.24,.6-1.24,1.34v3.32h.62s-.13-.5,.5-.5m-.66-2.25c0-.35,.29-.64,.65-.64s.64,.29,.64,.64v1.2h-1.29v-1.2Z"/><path class="cls-1" d="M96.29,101.72s-.22,.53-.72,.15c-.52-.37-2.09-1.51-2.09-1.51,0,0-.29-.35,.02-.78l-.39-.28-1.64,2.26-.58,.8c-.49,.66-.4,1.55,.18,1.97,.41,.3,.94,.29,1.39,.04,.02,.35,.18,.67,.47,.88,.56,.41,1.36,.23,1.8-.37l1.03-1.42,.15-.21,.29-.4,.56-.77-.5-.36Zm-4.25,1.54c-.3-.21-.36-.64-.14-.96l.7-.96c.15,0,.32,.04,.51,.18,.18,.12,.42,.3,.69,.5l-.8,1.09c-.23,.31-.65,.37-.95,.15m2.69,.88c-.21,.28-.61,.35-.89,.14-.3-.21-.36-.6-.15-.89l.68-.94c.39,.28,.77,.56,1.04,.75l-.68,.94Z"/><path class="cls-1" d="M65.51,49.26c-1.43,0-2.59,1.07-2.59,2.4s1.15,2.4,2.59,2.4,2.59-1.07,2.59-2.4-1.15-2.4-2.59-2.4m0,4.08c-.44,0-1.07-.82-1.07-1.69s.63-1.69,1.07-1.69,1.06,.83,1.06,1.69-.63,1.69-1.06,1.69"/><path class="cls-1" d="M72.52,53.45s-.92,.08-.92-.84v-.85h.78l1.33,2.14s.86,.18,1.49-.56l-.21-.31s-.58,.39-.84-.09c-.19-.35-.54-.92-.7-1.19,.7-.03,1.27-.56,1.27-1.23s-.6-1.23-1.34-1.23h-3.33v.62s.5-.14,.5,.5v2.57s-.1,.44-.58,.44v.48h2.52l.02-.45Zm.29-3.7c.35,0,.63,.29,.63,.64s-.28,.64-.63,.64h-1.21v-1.29h1.21Z"/><path class="cls-1" d="M52.13,72.55h2.57s.44,.1,.44,.58h.48v-2.52l-.45-.02s.08,.91-.83,.91h-.85v-.79l2.13-1.32s.18-.87-.55-1.49l-.31,.21s.39,.58-.08,.83c-.36,.2-.93,.54-1.19,.7-.03-.7-.57-1.27-1.23-1.27s-1.23,.6-1.23,1.34v3.33h.62s-.13-.49,.5-.49m-.65-2.26c0-.35,.29-.63,.64-.63s.64,.27,.64,.63v1.2h-1.28v-1.2Z"/><path class="cls-1" d="M76.24,112.47s.91,.17,.65,1.06c-.06,.21-.14,.5-.23,.81l-.75-.22-.69-2.41s-.78-.41-1.59,.12l.12,.36s.66-.22,.78,.31c.09,.39,.26,1.04,.34,1.34-.69-.16-1.38,.2-1.56,.84-.19,.65,.23,1.35,.95,1.55l2.37,.68,.83,.23,.17-.59s-.51,0-.34-.62c.17-.6,.7-2.47,.7-2.47,0,0,.22-.4,.67-.27l.13-.45-2.42-.69-.15,.42Zm-1.72,2.68c.09-.34,.45-.54,.77-.45l1.16,.34c-.12,.46-.26,.92-.35,1.24l-1.15-.33c-.34-.09-.53-.45-.43-.79"/><path class="cls-1" d="M103.46,54.89s.13,.49-.5,.49h-2.57s-.44-.1-.44-.57h-.47v2.52l.44,.02s-.08-.91,.84-.91h.85v.78l-2.13,1.32s-.18,.88,.55,1.5l.31-.21s-.39-.57,.08-.83c.35-.2,.92-.54,1.19-.7,.03,.7,.56,1.27,1.22,1.27s1.23-.6,1.23-1.34v-3.33h-.62Zm.16,2.75c0,.35-.29,.63-.64,.63s-.64-.28-.64-.63v-1.2h1.29v1.2Z"/><polygon class="cls-1" points="84.92 53.53 84.28 53.53 86 50.98 88.48 53.89 90.67 51.58 91.98 53.53 91.17 53.53 91.17 53.91 94.35 53.91 94.35 53.53 93.92 53.53 91.79 50.36 91.81 50.34 91.81 49.4 90.78 49.4 90.78 50.08 89.03 51.94 86.96 49.4 84.71 49.4 84.71 50.14 85.29 50.14 85.29 50.15 83.02 53.53 82.56 53.53 82.56 53.91 84.92 53.91 84.92 53.53"/><polygon class="cls-1" points="98.36 53.2 97.99 53.2 97.99 50.12 98.36 50.12 98.36 49.41 96.21 49.41 96.21 50.12 96.58 50.12 96.58 53.2 96.21 53.2 96.21 53.9 98.36 53.9 98.36 53.2"/><polygon class="cls-1" points="51.77 66.56 54.84 66.56 54.84 66.93 55.55 66.93 55.55 64.78 54.84 64.78 54.84 65.15 51.77 65.15 51.77 64.78 51.06 64.78 51.06 66.93 51.77 66.93 51.77 66.56"/><polygon class="cls-1" points="51.75 57.91 55.71 55.38 51.75 52.3 51.75 51.47 51.1 51.47 51.1 53.72 51.75 53.72 51.75 53.05 53.96 54.78 51.75 56.19 51.75 56.04 51.1 56.04 51.1 58.55 51.75 58.55 51.75 57.91"/><polygon class="cls-1" points="51.51 63.76 52.43 63.76 52.43 63.36 51.99 63.36 51.99 62.1 54.88 62.1 54.88 62.89 55.55 62.89 55.55 59.85 54.88 59.85 54.88 60.64 51.99 60.64 51.99 59.38 52.43 59.38 52.43 58.97 51.99 58.97 51.07 58.97 51.07 63.76 51.51 63.76"/><polygon class="cls-1" points="51.77 76.39 54.84 76.39 54.84 76.75 55.55 76.75 55.55 74.6 54.84 74.6 54.84 74.98 51.77 74.98 51.77 74.6 51.06 74.6 51.06 76.75 51.77 76.75 51.77 76.39"/><path class="cls-1" d="M91.73,107.33c-.06,.02-.24-.13-.31-.21l-1.89-2c-.07-.08-.1-.14-.08-.19,.02-.05,.14-.18,.36-.39l-.38-.41-3.42,3.22,.57,1.16,.42-.39c-.1-.19,0-.67-.02-.7,0-.08,.03-.15,.12-.24l1.41-1.33,1.99,2.11c.08,.09,.23,.26,.22,.3,0,.03-.52,.54-.75,.76l.41,.44,2.16-2.03-.42-.45c-.21,.2-.34,.31-.39,.34"/><path class="cls-1" d="M59.63,101.84l2.33-1.48c.08-.05,.15-.06,.19-.04,.04,.03,.14,.17,.31,.43l.47-.3-2.51-3.97-1.24,.34,.31,.48c.2-.07,.66,.12,.68,.12,.09,0,.16,.06,.22,.17l1.03,1.63-2.45,1.55c-.1,.06-.3,.16-.34,.15-.03-.02-.42-.61-.6-.88l-.51,.32,1.58,2.5,.51-.32c-.15-.25-.24-.4-.25-.45-.01-.06,.17-.21,.26-.26"/><path class="cls-1" d="M62.1,101.67l.42,.52c.22-.1,.34-.16,.37-.17,.1-.04,.17-.07,.2-.07,.07,0,.33,.27,.39,.34l.85,1.05-1.17,.94-1.11-1.37-.5,.41,1.11,1.39-.92,.73-.95-1.18s-.04-.05-.05-.07c-.02-.04-.02-.1,.01-.16,0-.02,.04-.07,.09-.14l.22-.3-.4-.5-.77,1.01,2.52,3.13,.42-.33c-.1-.13-.17-.22-.19-.26-.06-.08-.08-.14-.08-.16,0-.04,.04-.07,.11-.13l2.35-1.89c.09-.07,.15-.09,.19-.07,.04,.02,.14,.14,.31,.35l.42-.34-2.62-3.26-1.2,.54Z"/><path class="cls-1" d="M54.69,92.59l2.87-.96c.09-.03,.16-.03,.19,0,.03,.03,.1,.18,.18,.44l.51-.17-1.33-3.96-1.31,.09,.21,.62c.24-.02,.38-.03,.41-.03,.11,0,.19,0,.22,0,.06,.02,.21,.37,.24,.46l.42,1.29-1.43,.46-.56-1.67-.62,.21,.56,1.68-1.12,.38-.48-1.45s-.02-.06-.02-.08c0-.05,0-.1,.06-.15,.01-.03,.06-.05,.13-.1l.31-.21-.21-.61-1.07,.68,1.28,3.81,.51-.17c-.06-.16-.09-.26-.09-.31-.03-.1-.04-.16-.02-.18,.01-.03,.07-.06,.15-.08"/><path class="cls-1" d="M53.27,87.77c.54-.05,.94-.56,1.18-1.52,.07-.31,.13-.61,.2-.92,.09-.42,.18-.7,.26-.83,.06-.11,.27-.18,.37-.19,.12-.01,.21,.05,.29,.2,.08,.13,.13,.33,.16,.55,.03,.34,.03,.85-.06,1.02-.12,.25-.51,.47-.91,.68l.3,.83c.47-.24,.9-.41,1.28-.52,.12-.78,.18-1.08,.11-1.78-.09-.98-.29-1.39-.66-1.9-.32-.44-.68-.64-1.07-.6-.34,.03-.6,.17-.81,.49-.17,.24-.29,.76-.41,1.25-.02,.09-.07,.3-.2,.91-.09,.42-.17,.69-.25,.83-.04,.09-.1,.13-.16,.13-.18,.02-.43-.19-.47-.64-.03-.32-.1-1.51-.02-1.63,.09-.15,.46-.32,.84-.48l-.23-.71c-.51,.2-.93,.36-1.27,.44-.11,.68-.16,1.05-.1,1.73,.08,.82,.25,1.46,.52,1.93,.3,.53,.66,.78,1.08,.74"/><path class="cls-1" d="M102.79,68.86c.23,.07,.1,.08,.14,.09,.11,.05,.19,.1,.22,.13,.03,.04,.05,.13,.05,.27v1.68l-3.25-2.87s-.46-.57-.46,.38v4.48l1.24,.36v-.87c-.35-.11-.22-.21-.3-.28-.07-.05-.1-.18-.1-.38v-1.38l3.27,2.8s.45,.31,.45-.43v-4.5l-1.26-.33v.85Z"/><path class="cls-1" d="M100.29,60.86s-.02-.18-.02-.41h-.78v1.88h.78v-.4l.77,.4v2c-.64,.37-.79,.44-.79,.44,0,0,.02-.78,.02-.81h-.78v3.05h.78c0-.23,.01-.38,.03-.43,.01-.06,.08-.12,.19-.19l3.57-2.15v-1.31l-3.66-1.95c-.06-.03-.11-.08-.12-.13m1.4,1.98l1,.5-1,.58v-1.08Z"/><path class="cls-1" d="M100.24,74.55s-.01-.18-.01-.41h-.78v1.88h.78v-.38h0s.77,.38,.77,.38v2c-.64,.36-.79,.43-.79,.43,0,0,.02-.78,.02-.81h-.78v3.05h.78c0-.23,0-.38,.02-.43,.02-.06,.08-.12,.2-.18l3.57-2.15v-1.31l-3.66-1.95c-.07-.04-.11-.08-.12-.13m1.4,1.98l1,.5-1,.58v-1.08Z"/><path class="cls-1" d="M85.55,108.9l-.42-.66-1.59,1,.41,.66c.19-.11,.29-.17,.32-.19,.01,0,.01-.01,.02-.01l.08,.86-1.7,1.07c-.65-.34-.79-.44-.79-.44,0,0,.66-.4,.69-.42l-.41-.66-2.58,1.62,.42,.67c.19-.12,.31-.2,.37-.21,.06,0,.15,0,.26,.07l3.72,1.89,1.11-.7-.3-4.14c0-.08,.01-.13,.04-.17,.04-.03,.15-.11,.34-.23m-2.18,3.05l.92-.58,.11,1.12-1.03-.53Z"/><path class="cls-1" d="M72.04,109.65l-.46,.63c.18,.13,.28,.21,.31,.23,0,0,.01,0,.01,0l-.77,.4-1.62-1.17c.07-.73,.1-.89,.1-.89,0,0,.62,.46,.65,.47l.45-.63-2.48-1.77-.45,.64c.18,.13,.29,.22,.33,.27,.04,.04,.05,.14,.04,.26l-.34,4.16,1.06,.76,3.71-1.84c.07-.03,.13-.04,.18-.02,.04,.02,.16,.09,.34,.22l.46-.64-1.53-1.09Zm-2.68,2.02l.11-1.16,.88,.63-.99,.53Z"/><path class="cls-1" d="M97.08,93.17s.06-.17,.15-.38l-.71-.32-.76,1.71,.71,.32c.09-.2,.14-.31,.15-.35t.02-.02l.54,.68-.82,1.83c-.73,.08-.89,.08-.89,.08,0,0,.33-.71,.34-.73l-.71-.31-1.24,2.78,.72,.31c.08-.2,.16-.33,.2-.38,.04-.04,.12-.07,.25-.08l4.14-.51,.53-1.19-2.55-3.27c-.05-.06-.07-.11-.06-.16m1.18,3.25l-1.15,.12,.44-.99,.71,.87Z"/><path class="cls-1" d="M102.35,86.7c-.02,.09-.06,.15-.08,.16-.03,.02-.24-.04-.34-.05l-2.68-.72c-.11-.03-.16-.06-.17-.1,0-.04,.03-.2,.1-.47l-.55-.15-.6,2.27,.55,.15c.04-.16,.07-.24,.08-.28,.03-.07,.05-.12,.08-.14,.02,0,.08,0,.16,.02l1.13,.3-.52,2-1.13-.3c-.09-.03-.15-.06-.16-.1,0-.04,.02-.17,.08-.4l-.55-.15-.6,2.27,.55,.15c.05-.17,.08-.27,.1-.32,.03-.09,.06-.14,.08-.16,.02,0,.08,0,.17,.02l2.68,.72c.11,.03,.33,.1,.34,.14,0,.04-.03,.2-.1,.47l.6,.16,.61-2.27-.6-.16c-.04,.15-.07,.24-.08,.28-.02,.09-.05,.12-.07,.13-.02,.01-.24-.04-.32-.06l-.9-.23,.53-2,.9,.23c.1,.02,.31,.11,.31,.14,0,.03-.01,.17-.08,.4l.6,.16,.61-2.27-.61-.15c-.04,.17-.08,.27-.09,.32"/></svg>