<?xml version="1.0" encoding="UTF-8"?><svg id="Capa_1" xmlns="http://www.w3.org/2000/svg" xmlns:xlink="http://www.w3.org/1999/xlink" viewBox="0 0 300 300"><defs><style>.cls-1{fill:url(#linear-gradient-2);}.cls-2{fill:#fff;}.cls-3{fill:#449dd7;}.cls-4,.cls-5{opacity:.05;}.cls-5,.cls-6{fill:#1d1d1b;}.cls-7{fill:url(#linear-gradient-3);}.cls-8{fill:url(#linear-gradient);}.cls-9{fill:url(#linear-gradient-4);}.cls-10{fill:#265aa6;}</style><linearGradient id="linear-gradient" x1="121.59" y1="185.82" x2="121.59" y2="139.02" gradientUnits="userSpaceOnUse"><stop offset=".39" stop-color="#dadada" stop-opacity="0"/><stop offset="1" stop-color="#dadada"/></linearGradient><linearGradient id="linear-gradient-2" x1="180.06" y1="162.48" x2="180.06" y2="113.83" xlink:href="#linear-gradient"/><linearGradient id="linear-gradient-3" x1="93.44" y1="206.69" x2="205.85" y2="206.69" gradientUnits="userSpaceOnUse"><stop offset="0" stop-color="#eeeded"/><stop offset="1" stop-color="#fff"/></linearGradient><linearGradient id="linear-gradient-4" x1="88.27" y1="125.74" x2="210.31" y2="125.74" xlink:href="#linear-gradient-3"/></defs><polygon class="cls-10" points="228.79 270.97 149.89 292.21 70.99 270.97 52.79 73.72 247 73.72 228.79 270.97"/><polygon class="cls-3" points="149.89 89.7 149.89 275.27 150.07 275.31 213.92 258.12 228.66 89.7 149.89 89.7"/><g><polygon class="cls-6" points="105.11 44.74 105.11 33 122.24 33 122.24 20.15 92.27 20.15 92.27 56.46 122.24 56.46 122.24 44.74 105.11 44.74"/><path class="cls-6" d="M153.06,33h11.97v-12.85h-29.98v12.85c4.01,4.01,6.1,5.93,11.9,11.73-3.39,0-11.9,.01-11.9,.01v11.72h29.98v-11.72l-11.97-11.74Z"/><path class="cls-6" d="M195.54,33h11.97v-12.85h-29.98v12.85c4.01,4.01,6.1,5.93,11.9,11.73-3.39,0-11.9,.01-11.9,.01v11.72h29.98v-11.72l-11.97-11.74Z"/></g><g><polygon class="cls-2" points="149.82 139.02 93.35 162.54 95.22 185.82 149.82 162.48 207.9 137.65 210.31 113.83 149.82 139.02"/><polygon class="cls-8" points="93.35 162.54 95.22 185.82 149.82 162.48 149.82 139.02 93.35 162.54"/><polygon class="cls-1" points="210.31 113.83 149.82 139.02 149.82 162.48 207.9 137.65 210.31 113.83"/><polygon class="cls-7" points="93.44 162.54 95.31 185.82 179.08 186.09 177.21 217.13 149.64 224.89 123.15 218.2 121.54 198.93 96.92 198.93 100.13 236.13 149.91 250.85 199.42 236.4 205.85 162.54 93.44 162.54"/><g class="cls-4"><polygon class="cls-6" points="149.82 162.54 93.35 162.54 95.22 185.82 149.82 185.99 149.82 162.54"/><polygon class="cls-6" points="149.82 224.82 149.55 224.89 123.06 218.2 121.45 198.93 96.83 198.93 100.04 236.13 149.82 250.85 149.82 224.82"/></g><polygon class="cls-9" points="88.27 113.83 210.31 113.83 207.9 137.65 91.21 137.65 88.27 113.83"/><polygon class="cls-5" points="149.82 113.83 88.27 113.83 91.21 137.65 149.82 137.65 149.82 113.83"/></g></svg>