<?xml version="1.0" encoding="UTF-8"?><svg id="Capa_1" xmlns="http://www.w3.org/2000/svg" viewBox="0 0 300 300"><defs><style>.cls-1{fill:#fff;}.cls-2{fill:#e44e28;}.cls-3{fill:#ec662b;}.cls-4{fill:#ebebeb;}.cls-5{fill:#010101;}</style></defs><polygon class="cls-2" points="86.24 265.86 69.14 74.11 257 74.11 239.89 265.83 162.96 287.16 86.24 265.86"/><polygon class="cls-3" points="163.07 270.86 225.23 253.62 239.86 89.79 163.07 89.79 163.07 270.86"/><polygon class="cls-4" points="163.07 160.91 131.95 160.91 129.8 136.82 163.07 136.82 163.07 113.31 162.99 113.31 104.1 113.31 104.66 119.62 110.44 184.42 163.07 184.42 163.07 160.91"/><polygon class="cls-4" points="163.07 221.99 162.97 222.01 136.78 214.94 135.1 196.18 122.38 196.18 111.49 196.18 114.79 233.11 162.96 246.48 163.07 246.45 163.07 221.99"/><path class="cls-5" d="M86.62,22h11.95v11.81h10.93v-11.81h11.95V57.76h-11.95v-11.97h-10.93v11.97h-11.95V22h0Z"/><path class="cls-5" d="M137.17,33.86h-10.52v-11.86h33v11.86h-10.53v23.9h-11.95v-23.9h0Z"/><path class="cls-5" d="M164.89,22h12.46l7.67,12.56,7.66-12.56h12.47V57.76h-11.9v-17.72l-8.22,12.71h-.21l-8.23-12.71v17.72h-11.69V22Z"/><path class="cls-5" d="M211.09,22h11.96v23.94h16.81v11.82h-28.76V22Z"/><polygon class="cls-1" points="162.99 160.91 162.99 184.42 191.95 184.42 189.22 214.93 162.99 222 162.99 246.47 211.2 233.11 211.56 229.14 217.08 167.22 217.66 160.91 211.32 160.91 162.99 160.91"/><polygon class="cls-1" points="162.99 113.31 162.99 127.91 162.99 136.77 162.99 136.82 219.72 136.82 219.72 136.82 219.8 136.82 220.27 131.54 221.34 119.62 221.9 113.31 162.99 113.31"/></svg>