<?xml version="1.0" encoding="UTF-8"?><svg id="Capa_1" xmlns="http://www.w3.org/2000/svg" viewBox="0 0 300 300"><defs><style>.cls-1{fill:#f0f0f0;}.cls-2{fill:#fff;}.cls-3{fill:#f3c300;}.cls-4{fill:#1d1d1b;fill-rule:evenodd;}.cls-5{fill:#484847;}.cls-6{fill:#f59c26;}</style></defs><polyline class="cls-5" points="152.89 294 72.03 271.54 54 69.4 252.03 69.4 234 271.52"/><polyline class="cls-5" points="218.56 258.65 233.98 85.92 153.02 85.92 153.02 276.82"/><polyline class="cls-5" points="158.22 14.46 158.22 24.66 169.03 39.97 159.06 39.97 159.06 52.16 188.99 52.16 188.99 40.54 179.02 27.77 188.99 27.77 188.99 14.46"/><polyline class="cls-5" points="157.51 110.72 157.51 135.51 212.93 134.3 215.04 110.72"/><polyline class="cls-5" points="203.88 160.9 157.51 160.9 157.51 185.69 189.13 183.63 186.27 216.84 157.51 224.07 157.51 249.84 203.76 237.01 204.13 232.83 209.96 167.56 210.56 160.9"/><polyline class="cls-5" points="177.98 173.62 157.51 173.62 157.51 123.12 180.26 123.12"/><polyline class="cls-5" points="147.73 223.89 115.65 214.79 114.63 200.92 98.65 198.09 102.12 237.01 147.73 249.67"/><polyline class="cls-5" points="147.73 110.72 126.67 110.72 131.04 237.77 147.73 237.77"/><polyline class="cls-5" points="134.76 14.46 134.76 39.7 129.65 39.7 129.65 35 117.05 35 117.05 52.16 147.36 52.16 147.36 14.46"/><polyline class="cls-3" points="152.89 294 72.03 271.54 54 69.4 252.03 69.4 234 271.52"/><polyline class="cls-6" points="218.56 258.65 233.98 85.92 153.02 85.92 153.02 276.82"/><polyline class="cls-4" points="158.22 14.46 158.22 24.66 169.03 39.97 159.06 39.97 159.06 52.16 188.99 52.16 188.99 40.54 179.02 27.77 188.99 27.77 188.99 14.46"/><polyline class="cls-2" points="157.51 110.72 157.51 135.51 212.93 134.3 215.04 110.72"/><polyline class="cls-2" points="203.88 160.9 157.51 160.9 157.51 185.69 189.13 183.63 186.27 216.84 157.51 224.07 157.51 249.84 203.76 237.01 204.13 232.83 209.96 167.56 210.56 160.9"/><polyline class="cls-2" points="177.98 173.62 157.51 173.62 157.51 123.12 180.26 123.12"/><polyline class="cls-1" points="147.73 223.89 115.65 214.79 114.63 200.92 98.65 198.09 102.12 237.01 147.73 249.67"/><polyline class="cls-1" points="147.73 110.72 126.67 110.72 131.04 237.77 147.73 237.77"/><polyline class="cls-4" points="134.76 14.46 134.76 39.7 129.65 39.7 129.65 35 117.05 35 117.05 52.16 147.36 52.16 147.36 14.46"/></svg>