<?xml version="1.0" encoding="UTF-8"?><svg id="Layer_1" xmlns="http://www.w3.org/2000/svg" viewBox="0 0 715.49 185.41"><defs><style>.cls-1,.cls-2{fill:#fff3e7;}.cls-2{fill-rule:evenodd;}</style></defs><path class="cls-1" d="M700.53,18.5c2.51,0,4.96,.64,7.35,1.94,2.39,1.29,4.26,3.14,5.6,5.53,1.33,2.41,2,4.9,2,7.5s-.66,5.06-1.98,7.44c-1.32,2.38-3.16,4.22-5.52,5.54-2.37,1.32-4.86,1.97-7.45,1.97s-5.07-.65-7.45-1.97c-2.37-1.32-4.21-3.16-5.54-5.54-1.32-2.38-1.99-4.86-1.99-7.44s.68-5.09,2.02-7.5c1.34-2.4,3.21-4.25,5.6-5.53,2.4-1.29,4.84-1.94,7.36-1.94m0,2.47c-2.11,0-4.16,.55-6.14,1.62-1.99,1.08-3.55,2.62-4.67,4.62-1.13,2.01-1.68,4.09-1.68,6.26s.55,4.23,1.65,6.21c1.11,1.98,2.65,3.52,4.64,4.62,1.98,1.11,4.05,1.66,6.21,1.66s4.22-.55,6.21-1.66c1.98-1.1,3.52-2.64,4.62-4.62,1.09-1.98,1.65-4.04,1.65-6.21s-.57-4.25-1.68-6.26c-1.11-2-2.67-3.54-4.67-4.62-2-1.07-4.04-1.62-6.13-1.62m-6.54,20.75V25.66h5.52c1.89,0,3.25,.14,4.1,.44,.85,.3,1.51,.81,2.03,1.56,.5,.74,.75,1.52,.75,2.34,0,1.18-.43,2.2-1.26,3.07-.84,.87-1.96,1.36-3.34,1.47,.57,.23,1.02,.52,1.37,.84,.64,.63,1.43,1.7,2.37,3.2l1.95,3.14h-3.19l-1.42-2.53c-1.12-1.98-2.01-3.22-2.69-3.73-.47-.38-1.16-.57-2.07-.57h-1.52v6.83h-2.6Zm2.6-9.05h3.14c1.51,0,2.53-.23,3.08-.68,.55-.45,.83-1.04,.83-1.77,0-.47-.14-.9-.4-1.27-.27-.37-.63-.65-1.09-.83-.47-.19-1.34-.28-2.61-.28h-2.95v4.83Z"/><path class="cls-2" d="M673.27,32.05c-2.39-2.76-5.61-4.14-9.93-4.14s-7.64,1.47-9.93,4.51c-2.3,2.94-3.5,7.35-3.5,13.15v41.92c-5.33-5.88-10.85-10.11-16.46-12.96-3.49-1.75-7.62-3.03-12.22-3.68-2.67-.37-5.43-.55-8.46-.55-14.07,0-25.46,4.97-34.2,14.9-8.64,9.93-12.96,23.72-12.96,41.47,0,8.37,1.11,16.18,3.31,23.36,2.2,7.17,5.33,13.42,9.56,18.75,4.23,5.34,9.28,9.38,15.08,12.33,5.79,2.84,12.05,4.31,18.85,4.31,3.12,0,6.06-.28,8.82-.83,1.84-.28,3.59-.74,5.34-1.29,4.32-1.47,8.36-3.58,12.04-6.24,3.77-2.77,7.54-6.35,11.31-10.67v2.76c0,5.24,1.29,9.19,3.78,12.04,2.57,2.76,5.79,4.23,9.65,4.23s7.17-1.38,9.65-4.05c2.48-2.76,3.77-6.8,3.77-12.23V44.09c0-5.24-1.2-9.29-3.5-12.05m-28.59,115.67c-2.49,5.33-5.8,9.28-9.84,11.86-4.15,2.58-8.65,3.86-13.61,3.86h-.09c-4.96,0-9.47-1.38-13.61-4.04-4.14-2.76-7.44-6.81-9.84-12.14-2.39-5.42-3.59-11.95-3.59-19.68,0-7.27,1.1-13.7,3.4-19.13,2.21-5.51,5.43-9.75,9.47-12.69,4.14-3.03,8.73-4.41,13.98-4.41h.28c4.88,0,9.38,1.47,13.52,4.33,4.13,2.85,7.44,6.98,9.93,12.41,2.48,5.42,3.67,11.95,3.67,19.49,0,8.09-1.19,14.81-3.67,20.14"/><path class="cls-2" d="M556.87,148.91c-1.75-1.56-4.13-2.39-7.09-2.39-2.67,0-4.69,.65-6.16,1.84-3.58,3.31-6.43,5.97-8.64,7.91-2.2,1.84-4.69,3.68-7.36,5.43-2.58,1.66-5.33,2.94-8.08,3.68-2.86,.83-5.89,1.19-9.29,1.19-.74,0-1.47,0-2.12-.09-4.23-.28-8.18-1.48-11.76-3.68-4.23-2.49-7.55-6.16-10.12-10.94-2.48-4.97-3.77-10.67-3.87-17.1h55.45c7.44,0,13.23-1.1,17.28-3.12,4.14-2.21,6.16-6.81,6.16-13.89,0-7.71-2.02-15.26-5.97-22.71-3.96-7.35-9.84-13.43-17.84-18.11-7.91-4.69-17.38-6.99-28.5-6.99h-.82c-8.18,.09-15.73,1.47-22.44,4.04-6.98,2.76-12.87,6.71-17.75,11.77-4.69,5.14-8.37,11.31-10.85,18.48-2.48,7.17-3.77,14.98-3.77,23.35,0,17.84,5.06,31.81,15.17,42.21,9.57,9.84,22.8,14.98,39.63,15.54,.92,.09,1.93,.09,2.94,.09,7.91,0,14.99-1.01,21.15-3.13,6.16-2.11,11.22-4.68,15.27-7.81,4.04-3.21,7.07-6.53,9.1-9.93,2.02-3.41,3.03-6.44,3.03-8.92,0-2.85-.91-5.15-2.75-6.71m-66.21-51.95c4.51-4.87,10.31-7.27,17.38-7.27h.09c7.36,0,13.33,2.39,17.83,7.17,4.51,4.78,7.19,12.04,7.82,21.79h-51.4c.92-9.57,3.68-16.82,8.28-21.7"/><path class="cls-2" d="M436.33,146.52c-2.75,0-4.78,.65-6.25,1.84-3.49,3.31-6.43,5.97-8.64,7.91-2.2,1.84-4.59,3.68-7.26,5.43-2.67,1.66-5.34,2.94-8.18,3.68-2.76,.83-5.89,1.19-9.29,1.19-.74,0-1.47,0-2.12-.09-4.23-.28-8.19-1.48-11.77-3.68-4.14-2.49-7.55-6.16-10.02-10.94-2.58-4.97-3.87-10.67-3.96-17.1h55.54c7.36,0,13.15-1.1,17.29-3.12,4.04-2.21,6.07-6.81,6.07-13.89,0-7.71-1.93-15.26-5.88-22.71-3.96-7.35-9.93-13.43-17.84-18.11-7.91-4.69-17.46-6.99-28.5-6.99h-.92c-8.19,.09-15.63,1.47-22.44,4.04-6.99,2.76-12.87,6.71-17.66,11.77-4.78,5.14-8.46,11.31-10.94,18.48-2.48,7.17-3.77,14.98-3.77,23.35,0,17.84,5.15,31.81,15.26,42.21,9.57,9.84,22.71,14.98,39.54,15.54,1.01,.09,1.93,.09,2.94,.09,8,0,14.99-1.01,21.15-3.13,6.16-2.11,11.22-4.68,15.27-7.81,4.13-3.21,7.08-6.53,9.1-9.93,2.03-3.41,3.03-6.44,3.03-8.92,0-2.85-.92-5.15-2.66-6.71-1.84-1.56-4.23-2.39-7.08-2.39m-59.22-49.56c4.51-4.87,10.31-7.27,17.38-7.27h.1c7.35,0,13.33,2.39,17.83,7.17,4.61,4.78,7.17,12.04,7.91,21.79h-51.49c1.01-9.57,3.77-16.82,8.28-21.7"/><path class="cls-2" d="M59.07,166.57V98.89c1.93,.19,3.77,.28,5.7,.28,9.19,0,17.83-2.49,25.19-6.89v74.29c0,6.34-1.47,11.03-4.32,14.16-2.85,3.12-6.62,4.69-11.22,4.69s-8.09-1.56-11.04-4.78c-2.84-3.12-4.32-7.81-4.32-14.07"/><path class="cls-2" d="M326.17,32.05c-2.39-2.76-5.7-4.14-9.84-4.14s-7.64,1.47-9.93,4.5c-2.39,2.94-3.49,7.36-3.49,13.15v41.92c-5.34-5.88-10.85-10.11-16.46-12.96-3.59-1.75-7.63-3.03-12.23-3.68-2.66-.37-5.42-.55-8.46-.55-14.07,0-25.56,4.97-34.2,14.9-8.64,9.93-12.96,23.72-12.96,41.47,0,8.37,1.1,16.18,3.21,23.36,2.21,7.17,5.43,13.42,9.66,18.75,4.23,5.34,9.29,9.38,15.08,12.33,5.79,2.84,12.04,4.31,18.85,4.31,3.03,0,5.97-.28,8.82-.83,1.84-.28,3.59-.74,5.33-1.29,4.33-1.47,8.37-3.58,12.05-6.24,3.77-2.77,7.45-6.35,11.32-10.67v2.76c0,5.24,1.28,9.19,3.76,12.04,2.48,2.76,5.79,4.23,9.65,4.23s7.08-1.38,9.56-4.05c2.48-2.76,3.68-6.8,3.68-12.23V44.09c0-5.24-1.11-9.29-3.41-12.05m-28.5,115.67c-2.48,5.33-5.79,9.28-9.93,11.86-4.04,2.58-8.64,3.86-13.52,3.86h-.09c-4.97,0-9.48-1.38-13.61-4.04-4.23-2.76-7.45-6.81-9.84-12.14-2.39-5.42-3.59-11.95-3.59-19.68,0-7.27,1.1-13.7,3.31-19.13,2.3-5.51,5.42-9.75,9.56-12.69,4.05-3.03,8.74-4.41,13.89-4.41h.36c4.87,0,9.38,1.47,13.43,4.33,4.23,2.85,7.54,6.98,10.02,12.41,2.39,5.42,3.68,11.95,3.68,19.49,0,8.09-1.29,14.81-3.68,20.14"/><path class="cls-2" d="M135.29,85.74v3.49c5.05-6.62,10.48-11.4,16.36-14.52,5.97-3.04,12.79-4.6,20.51-4.6s14.15,1.65,20.04,4.87c5.89,3.22,10.21,7.81,13.15,13.79,1.93,3.5,3.12,7.26,3.67,11.31,.55,3.95,.83,9.1,.83,15.35v52.69c0,5.7-1.38,10.02-3.95,12.87-2.58,2.94-5.98,4.41-10.12,4.41s-7.63-1.47-10.29-4.5c-2.67-2.95-3.96-7.26-3.96-12.78v-47.17c0-9.38-1.28-16.55-3.86-21.52-2.58-4.96-7.82-7.45-15.54-7.45-5.06,0-9.65,1.56-13.79,4.51-4.14,3.03-7.26,7.17-9.19,12.5-1.38,4.23-2.03,12.04-2.03,23.72v35.4c0,5.79-1.37,10.02-4.04,12.97-2.67,2.84-6.07,4.31-10.3,4.31s-7.45-1.47-10.11-4.5c-2.67-2.95-3.96-7.26-3.96-12.78V86.2c0-5.42,1.2-9.47,3.59-12.04,2.3-2.67,5.52-4.05,9.66-4.05,2.47,0,4.69,.55,6.71,1.75,2.02,1.2,3.67,2.94,4.87,5.34,1.2,2.39,1.75,5.24,1.75,8.55"/><path class="cls-2" d="M59.25,4.37c19.12-6.89,40.91-6.52,57.29,7.63,3.03,2.85,6.52,6.44,7.9,10.66,1.66,5.34-5.79-.55-6.8-1.28-5.34-3.5-10.67-6.43-16.64-8.46C68.81,3,38.38,20.92,19.43,48.78c-7.91,12.32-13.05,25.28-17.28,39.54-.46,1.56-.83,3.58-1.66,4.96-.83,1.56-.36-4.23-.36-4.41,.64-5.89,1.84-11.59,3.31-17.29C12.17,41.24,31.48,15.96,59.25,4.37"/><path class="cls-2" d="M84.16,79.68c-11.49,5.88-25.56,1.29-31.35-10.21-5.89-11.49-1.29-25.57,10.2-31.36,11.49-5.88,25.56-1.28,31.36,10.21,5.88,11.49,1.28,25.56-10.21,31.35"/></svg>