<?xml version="1.0" encoding="UTF-8"?><svg id="Layer_1" xmlns="http://www.w3.org/2000/svg" viewBox="0 0 365 70.18"><defs><style>.cls-1{fill:#fff2e5;}</style></defs><path class="cls-1" d="M39.59,15.38h-8.44c-.47,0-.87,.39-.87,.87v4.49c-2.13-3.47-6.62-6.31-12.54-6.31C8.2,14.43,0,21.61,0,34.46s7.81,19.79,18.06,19.79c5.52,0,9.86-2.29,12.38-5.91v2.44c0,5.52-2.68,9.94-11.28,9.94-4.34,0-7.81-1.42-10.88-4.18-.39-.32-1.03-.24-1.26,.16l-3.79,6.39c-.47,.79-.39,1.26-.08,1.58,3.94,3.39,9.07,5.52,16.48,5.52,16.17,0,20.9-8.99,20.9-18.93V16.17c-.08-.47-.47-.79-.95-.79Zm-19.08,29.49c-5.76,0-10.09-4.1-10.09-10.33s4.34-10.33,10.09-10.33,10.01,3.94,10.01,10.33-4.26,10.33-10.01,10.33ZM59.06,.87V52.99c0,.47-.39,.87-.87,.87h-8.52c-.47,0-.87-.39-.87-.87V.87c0-.47,.39-.87,.87-.87h8.52c.47,0,.87,.39,.87,.87Zm25.08,13.64c-8.04,0-14.11,2.68-16.87,8.04-.16,.39-.08,.87,.32,1.1l6.15,4.42c.39,.32,.95,.16,1.18-.24,1.73-3.08,5.52-4.1,9.23-4.1,4.57,0,6.7,1.58,6.7,3.86v.63c0,.95-.55,1.42-1.97,1.58l-10.57,.95c-7.1,.71-12.3,5.05-12.3,12.06s5.36,11.99,13.01,11.99c5.99,0,9.86-2.92,11.83-5.99v4.34c0,.47,.39,.87,.87,.87h8.44c.47,0,.87-.39,.87-.87V30.2c0-10.72-5.68-15.69-16.87-15.69Zm6.7,23.81c0,4.26-3.47,7.89-8.83,7.89-3.55,0-5.44-1.58-5.44-4.1,0-2.13,1.66-3.78,4.73-4.26l9.54-1.18v1.66Zm50.62,3.86c0,8.75-6.39,12.54-16.64,12.54-7.1,0-13.17-1.89-16.64-5.84-.24-.32-.24-.79,0-1.1l4.89-6.31c.32-.39,.95-.39,1.26-.08,2.6,2.6,6.54,4.26,11.51,4.26,2.84,0,5.13-.79,5.13-2.92s-2.05-2.52-8.52-3.94c-5.68-1.18-12.77-3.79-12.77-12.14,0-7.81,6.15-12.22,16.24-12.22,6.62,0,11.36,1.97,14.75,5.13,.32,.32,.32,.79,.08,1.18l-4.65,5.99c-.32,.39-.87,.47-1.18,.16-2.29-2.05-6.07-3.31-9.78-3.31-3.15,0-4.89,1.03-4.89,2.68,0,1.89,2.05,2.37,8.91,3.86,6.62,1.5,12.3,4.02,12.3,12.06Zm39.03,0c0,8.75-6.39,12.54-16.64,12.54-7.1,0-13.17-1.89-16.64-5.84-.24-.32-.24-.79,0-1.1l4.89-6.31c.32-.39,.95-.39,1.26-.08,2.6,2.6,6.54,4.26,11.51,4.26,2.84,0,5.13-.79,5.13-2.92s-2.05-2.52-8.52-3.94c-5.68-1.18-12.77-3.79-12.77-12.14,0-7.81,6.15-12.22,16.24-12.22,6.62,0,11.35,1.97,14.75,5.13,.32,.32,.32,.79,.08,1.18l-4.65,5.99c-.32,.39-.87,.47-1.18,.16-2.29-2.05-6.07-3.31-9.78-3.31-3.15,0-4.89,1.03-4.89,2.68,0,1.89,2.05,2.37,8.91,3.86,6.62,1.5,12.3,4.02,12.3,12.06ZM225.68,0h-8.44c-.47,0-.87,.39-.87,.87V20.9c-2.6-3.71-6.94-6.55-12.93-6.55-9.38,0-17.35,7.25-17.35,20.27s7.96,20.19,17.51,20.19c5.6,0,10.01-2.44,12.77-6.39v4.49c0,.47,.39,.87,.87,.87h8.44c.47,0,.87-.39,.87-.87V.79c0-.39-.39-.79-.87-.79Zm-19.08,44.95c-5.76,0-10.09-4.1-10.09-10.33s4.34-10.33,10.09-10.33,10.09,3.94,10.09,10.33-4.42,10.33-10.09,10.33Zm46.92-30.52c-11.83,0-20.66,8.12-20.66,20.19s8.83,20.19,20.66,20.19,20.66-8.12,20.66-20.19-8.83-20.19-20.66-20.19Zm0,30.36c-5.76,0-10.25-4.1-10.25-10.25s4.49-10.25,10.25-10.25,10.25,4.1,10.25,10.25c-.08,6.23-4.49,10.25-10.25,10.25Zm46.92-30.36c-11.83,0-20.66,8.12-20.66,20.19s8.83,20.19,20.66,20.19,20.66-8.12,20.66-20.19c.08-11.99-8.75-20.19-20.66-20.19Zm0,30.36c-5.76,0-10.25-4.1-10.25-10.25s4.49-10.25,10.25-10.25,10.25,4.1,10.25,10.25-4.42,10.25-10.25,10.25Zm54.02-28.55c0-.39-.32-.79-.63-.95-.79-.39-1.97-.71-4.34-.71-5.36,0-10.17,2.68-12.22,7.1v-5.44c0-.47-.39-.87-.87-.87h-8.04c-.47,0-.87,.39-.87,.87V52.99c0,.47,.39,.87,.87,.87h8.44c.47,0,.87-.39,.87-.87v-16.56c0-7.41,5.13-11.04,11.83-11.04,1.58,0,3.15,.32,3.86,.63,.55,.16,1.1-.24,1.1-.79v-8.99Z"/><path class="cls-1" d="M358.87,13.24c0-.28,.04-.55,.11-.82,.07-.26,.18-.51,.31-.73,.13-.23,.29-.43,.48-.62,.19-.19,.4-.35,.62-.48,.23-.13,.47-.24,.73-.31,.26-.07,.53-.11,.81-.11s.55,.04,.82,.11c.26,.07,.51,.18,.73,.31,.23,.13,.43,.29,.62,.48,.19,.19,.35,.39,.48,.62,.13,.23,.24,.47,.31,.73,.07,.26,.11,.53,.11,.82s-.04,.55-.11,.81c-.07,.26-.18,.51-.31,.73-.13,.23-.29,.43-.48,.62-.19,.19-.4,.35-.62,.48-.23,.13-.47,.24-.73,.31-.26,.07-.53,.11-.82,.11s-.55-.04-.81-.11c-.26-.07-.5-.18-.73-.31-.23-.13-.43-.29-.62-.48-.19-.19-.35-.39-.48-.62-.13-.23-.24-.47-.31-.73-.07-.26-.11-.53-.11-.81Zm.42,0c0,.25,.03,.49,.09,.72,.06,.23,.15,.44,.26,.64,.11,.2,.25,.38,.41,.54,.16,.16,.34,.3,.53,.42,.2,.12,.41,.21,.63,.27,.23,.06,.46,.09,.71,.09,.37,0,.72-.07,1.04-.21,.32-.14,.6-.33,.84-.57,.24-.24,.43-.53,.57-.85,.14-.33,.21-.68,.21-1.05,0-.25-.03-.49-.09-.72-.06-.23-.15-.45-.27-.65-.11-.2-.25-.38-.41-.55-.16-.17-.34-.31-.54-.42-.2-.12-.41-.21-.64-.27-.23-.06-.47-.1-.71-.1-.37,0-.71,.07-1.04,.21-.32,.14-.6,.33-.84,.58-.24,.24-.43,.53-.56,.86-.14,.33-.21,.68-.21,1.06Zm2.04,.38v1.49h-.65v-3.74h1.21c.48,0,.84,.09,1.07,.26,.23,.17,.35,.43,.35,.77,0,.26-.07,.49-.22,.67-.15,.18-.37,.31-.67,.38l.12,.11,.1,.15,.96,1.4h-.62c-.09,0-.16-.04-.21-.1l-.84-1.27-.09-.08-.16-.03h-.34Zm0-.48h.49c.15,0,.29-.01,.39-.04,.11-.03,.19-.07,.26-.13,.07-.06,.11-.12,.14-.21,.03-.08,.04-.17,.04-.28s-.01-.19-.04-.27c-.03-.08-.07-.14-.13-.19-.06-.05-.14-.09-.24-.11-.1-.03-.22-.04-.37-.04h-.55v1.28Z"/></svg>